<svg width="343" height="202" viewBox="0 0 343 202" fill="none" xmlns="http://www.w3.org/2000/svg">
<path d="M175.081 199.977C175.775 196.34 177.932 193.006 180.96 190.877" stroke="#04D361" stroke-width="0.779" stroke-miterlimit="10"/>
<path d="M174.987 201C175.117 197.963 176.292 190.653 179.07 186.077" stroke="#04D361" stroke-width="0.779" stroke-miterlimit="10"/>
<path d="M175.028 200.624C175.509 195.208 175.467 189.223 174.621 183.849" stroke="#04D361" stroke-width="0.779" stroke-miterlimit="10"/>
<path d="M181.588 189.57L181.588 189.569C181.56 189.618 181.532 189.667 181.505 189.717C181.241 190.182 180.973 190.654 180.673 191.115C180.803 191.062 180.937 191.008 181.063 190.961C181.281 190.88 181.519 190.803 181.748 190.769L181.749 190.769C182.733 190.624 183.732 190.665 184.685 190.789L184.685 190.789C185.426 190.885 186.167 191.032 186.889 191.175C187.121 191.221 187.352 191.267 187.58 191.311C188.527 191.491 189.448 191.638 190.371 191.651L190.371 191.651C190.888 191.658 191.428 191.59 191.874 191.418C192.318 191.248 192.632 190.991 192.789 190.638L192.79 190.637C193.047 190.061 192.789 189.25 192.196 188.758L192.194 188.757C191.607 188.266 190.787 188.059 189.898 187.973L189.898 187.973C189.575 187.942 189.254 187.926 188.92 187.909C188.795 187.902 188.668 187.896 188.538 187.889C188.072 187.862 187.586 187.824 187.101 187.732L187.1 187.732C186.811 187.676 186.526 187.602 186.256 187.53C186.213 187.518 186.17 187.507 186.128 187.495C185.901 187.434 185.684 187.376 185.468 187.326C184.955 187.209 184.499 187.156 184.063 187.241L181.588 189.57ZM181.588 189.57L181.589 189.568M181.588 189.57L181.589 189.568M181.589 189.568C182.23 188.427 183.016 187.444 184.063 187.241L181.589 189.568Z" fill="#04D361" stroke="#04D361"/>
<path d="M179.607 185.511C179.441 185.699 179.28 185.878 179.12 186.045C179.244 185.669 179.412 185.237 179.599 184.789C179.982 183.876 180.422 182.955 180.693 182.387C180.782 182.202 180.852 182.054 180.897 181.956C181.782 180.039 183.124 178.296 184.979 177.778L184.979 177.778C185.769 177.557 186.598 177.564 187.49 177.643C187.785 177.669 188.096 177.705 188.415 177.741C189.02 177.811 189.654 177.883 190.261 177.901L190.263 177.901C190.555 177.908 190.856 177.903 191.145 177.898C191.283 177.896 191.419 177.894 191.549 177.893C191.964 177.89 192.357 177.901 192.739 177.958C193.502 178.072 194.183 178.408 194.508 178.955L194.508 178.956C194.755 179.369 194.776 179.888 194.595 180.408C194.414 180.93 194.041 181.408 193.579 181.7C192.606 182.315 191.337 182.369 190.043 182.226C189.664 182.184 189.31 182.132 188.946 182.078C188.666 182.037 188.381 181.994 188.074 181.956C187.402 181.87 186.704 181.814 185.991 181.87C184.174 182.01 182.5 182.866 181.129 183.96C180.62 184.364 180.164 184.88 179.745 185.356C179.699 185.408 179.653 185.46 179.607 185.511Z" fill="#04D361" stroke="#04D361"/>
<path d="M175.715 178.675L175.715 178.676C175.875 179.655 175.713 180.671 175.398 181.668C175.373 181.745 175.344 181.84 175.312 181.948C175.215 182.267 175.085 182.698 174.923 183.11C174.815 183.384 174.703 183.62 174.595 183.786C174.542 183.868 174.5 183.918 174.47 183.945C174.438 183.94 174.369 183.923 174.252 183.865C174.088 183.783 173.896 183.653 173.694 183.494C173.293 183.178 172.913 182.795 172.727 182.601C172.17 182.015 171.729 181.328 171.457 180.579L171.456 180.577C171.135 179.706 171.022 178.77 170.908 177.765C170.905 177.74 170.902 177.715 170.899 177.69C170.79 176.727 170.673 175.699 170.331 174.72L170.331 174.72C169.941 173.609 169.275 172.611 168.653 171.681C168.493 171.441 168.335 171.205 168.186 170.973C167.436 169.806 166.83 168.597 166.84 167.349C166.849 166.096 167.647 164.891 168.714 164.702L168.715 164.702C169.426 164.575 170.21 164.871 170.884 165.381L170.884 165.381C171.832 166.095 172.525 167.14 172.821 168.294C172.999 168.995 173.035 169.729 173.071 170.522L173.073 170.563C173.107 171.327 173.144 172.148 173.342 172.949C173.588 173.955 174.077 174.876 174.53 175.732C174.566 175.799 174.601 175.866 174.636 175.932C175.13 176.868 175.562 177.736 175.715 178.675Z" fill="#04D361" stroke="#04D361"/>
<path d="M174.976 200.114C174.621 195.329 173.389 189.924 170.71 185.942" stroke="#04D361" stroke-width="0.779" stroke-miterlimit="10"/>
<path d="M169.863 182.415L169.864 182.416C170.241 183.466 170.475 184.571 170.672 185.694L170.672 185.696C170.684 185.761 170.704 185.848 170.723 185.925C170.729 185.952 170.735 185.978 170.741 186.002C170.765 186.108 170.785 186.209 170.796 186.303C170.799 186.328 170.801 186.352 170.802 186.373C170.771 186.36 170.736 186.344 170.695 186.324C170.501 186.224 170.304 186.071 170.204 185.982C170.025 185.819 169.864 185.627 169.696 185.41C169.639 185.336 169.578 185.255 169.515 185.171C169.403 185.022 169.283 184.862 169.166 184.719L169.166 184.718C167.565 182.754 165.051 181.824 162.656 181.481C161.457 181.31 160.254 181.265 159.069 181.246C158.754 181.241 158.441 181.238 158.129 181.234C157.261 181.225 156.405 181.217 155.548 181.169L155.548 181.169L155.545 181.169C155.006 181.142 154.582 181.083 154.281 180.87C153.902 180.599 153.718 180.015 153.846 179.454C153.975 178.9 154.362 178.392 154.87 177.957L154.87 177.957C155.985 177.001 157.475 176.511 158.994 176.412C160.514 176.313 162.056 176.585 163.578 176.996L163.578 176.996C165.045 177.392 166.448 177.917 167.543 178.837C168.623 179.748 169.37 181.029 169.863 182.415Z" fill="#04D361" stroke="#04D361"/>
<path d="M174.877 200.624C174.668 196.45 172.788 192.38 169.749 189.511" stroke="#04D361" stroke-width="0.779" stroke-miterlimit="10"/>
<path d="M168.058 187.511C167.029 186.965 165.859 186.606 164.686 186.278L168.058 187.511ZM168.058 187.511C168.138 187.553 168.205 187.589 168.27 187.628L168.27 187.629L168.282 187.635C168.686 187.863 168.965 188.265 169.305 188.784C169.334 188.827 169.386 188.931 169.468 189.107C169.492 189.158 169.517 189.213 169.544 189.271C169.559 189.305 169.575 189.339 169.592 189.374C168.273 189.09 166.878 189.104 165.667 189.115L165.631 189.115C165.63 189.115 165.63 189.115 165.63 189.115C163.744 189.132 161.857 189.482 160.093 190.161L160.093 190.161L160.091 190.162C159.849 190.256 159.617 190.352 159.391 190.446C158.55 190.794 157.795 191.106 156.973 191.151C156.711 191.164 156.44 191.125 156.231 191.037C156.026 190.95 155.923 190.837 155.883 190.714C155.817 190.495 155.926 190.185 156.218 189.796L156.218 189.796L156.22 189.794C156.786 189.033 157.519 188.406 158.299 187.743C159.319 186.877 160.282 186.091 161.422 185.87L168.058 187.511ZM170.221 189.536C170.145 189.381 170.07 189.219 170.001 189.068C169.89 188.827 169.793 188.615 169.723 188.509C169.394 188.008 169.055 187.497 168.528 187.2C168.449 187.153 168.371 187.111 168.293 187.069L170.221 189.536ZM161.422 185.87C162.447 185.671 163.527 185.954 164.686 186.278L161.422 185.87Z" fill="#04D361" stroke="#04D361"/>
<path d="M302.255 183.822L302.255 183.823C301.609 184.462 300.818 184.824 300.065 185.119C299.875 185.194 299.689 185.263 299.507 185.331C298.943 185.543 298.418 185.74 297.926 186.02L302.255 183.822ZM302.255 183.822C303.158 182.925 303.562 181.679 303.912 180.601C303.961 180.449 304.01 180.301 304.058 180.157C304.47 178.932 305.033 177.814 305.989 177.354M302.255 183.822L305.772 176.903M321.138 180.836L321.138 180.835C319.887 179.825 318.652 178.931 317.252 179.025C316.746 179.061 316.243 179.225 315.667 179.412L315.639 179.421C315.074 179.605 314.436 179.811 313.768 179.834M321.138 180.836L313.75 179.335M321.138 180.836C322.047 181.568 322.837 182.251 323.095 183.188L323.095 183.188M321.138 180.836L323.095 183.188M313.768 179.834L313.75 179.335M313.768 179.834C313.768 179.834 313.768 179.834 313.768 179.834L313.75 179.335M313.768 179.834C312.919 179.865 312.158 179.605 311.476 179.257C310.96 178.994 310.458 178.664 309.992 178.357C309.853 178.265 309.717 178.176 309.585 178.091C308.392 177.324 307.084 176.828 305.989 177.354M313.75 179.335C312.457 179.381 311.35 178.652 310.283 177.95C310.14 177.855 309.997 177.762 309.855 177.67C308.654 176.898 307.129 176.251 305.772 176.903M305.989 177.354C305.989 177.354 305.989 177.354 305.989 177.354L305.772 176.903M305.989 177.354C305.989 177.354 305.988 177.354 305.988 177.354L305.772 176.903M323.095 183.188C323.405 184.31 322.833 185.702 321.811 186.553L321.81 186.554M323.095 183.188L321.81 186.554M321.81 186.554C320.796 187.403 319.437 187.764 318.094 187.794L318.093 187.794M321.81 186.554L318.093 187.794M318.093 187.794C317.936 187.798 317.768 187.798 317.593 187.799C317.1 187.801 316.551 187.804 316.045 187.875C315.336 187.974 314.604 188.215 314.043 188.834L314.043 188.835M318.093 187.794L314.043 188.835M314.043 188.835C313.498 189.437 313.318 190.188 313.191 190.842M314.043 188.835L313.191 190.842M297.991 193.687L297.992 193.687C298.203 193.598 298.419 193.504 298.639 193.409C299.788 192.909 301.052 192.359 302.367 192.302L297.991 193.687ZM297.991 193.687C297.396 193.937 296.598 194.263 295.845 194.387C295.071 194.515 294.542 194.4 294.254 194.023L294.253 194.02M297.991 193.687L294.253 194.02M294.253 194.02C294.128 193.859 294.049 193.616 294.033 193.274C294.017 192.935 294.066 192.538 294.16 192.114C294.342 191.288 294.673 190.443 294.907 189.843C294.914 189.826 294.921 189.808 294.928 189.791M294.253 194.02L294.928 189.791M294.928 189.791C295.539 188.234 296.548 186.806 297.926 186.02L294.928 189.791ZM318.105 188.294C319.52 188.262 321.003 187.881 322.131 186.937L318.105 188.294ZM318.105 188.294C317.928 188.298 317.746 188.299 317.563 188.3C316.414 188.305 315.192 188.311 314.413 189.17L318.105 188.294ZM313.191 190.842C313.17 190.95 313.15 191.055 313.131 191.157M313.191 190.842L313.131 191.157M313.131 191.157C313.028 191.715 312.939 192.193 312.721 192.62M313.131 191.157L312.721 192.62M312.721 192.62C312.21 193.609 310.99 194.169 309.815 194.165C308.631 194.16 307.509 193.71 306.309 193.229L306.297 193.225C305.123 192.754 303.795 192.24 302.367 192.302L312.721 192.62Z" fill="#04D361" stroke="#04D361"/>
<path d="M294.107 194.184C301.057 188.22 309.166 184.27 317.917 182.59" stroke="white" stroke-width="0.7047" stroke-miterlimit="10" stroke-linecap="round" stroke-linejoin="round"/>
<path d="M300.978 185.012C301.14 183.045 300.77 180.994 301.417 179.131C302.571 175.813 306.571 174.08 307.573 170.715C308.774 166.692 305.109 162.586 305.746 158.438C306.012 156.69 307.02 155.15 307.646 153.496C308.273 151.842 308.435 149.771 307.218 148.482C305.944 147.136 303.631 147.293 302.117 148.367C300.603 149.442 299.731 151.185 299.02 152.902C298.316 154.618 297.694 156.413 296.498 157.838C294.321 160.431 290.405 161.568 289.214 164.735C288.003 167.96 290.295 171.372 290.703 174.79C291.011 177.378 290.222 179.956 289.517 182.471C288.818 184.986 288.196 187.647 288.839 190.172C289.695 193.537 292.729 195.682 295.637 193.522C298.514 191.398 300.681 188.711 300.978 185.012Z" fill="#04D361"/>
<path d="M293.794 194.347C292.64 182.335 295.282 169.307 301.454 158.934" stroke="white" stroke-width="1.1364" stroke-miterlimit="10" stroke-linecap="round" stroke-linejoin="round"/>
<path d="M286.108 189.817C284.839 188.028 284.113 185.789 282.39 184.428C280.416 182.862 277.68 182.847 275.174 182.643C272.662 182.44 269.832 181.73 268.668 179.497C268.031 178.271 268.031 176.815 267.587 175.51C267.096 174.076 266.094 172.886 265.389 171.545C264.689 170.204 264.318 168.498 265.133 167.219C265.958 165.925 267.765 165.545 269.242 165.962C270.72 166.379 271.931 167.418 273.038 168.482C274.145 169.547 275.226 170.684 276.589 171.383C278.85 172.536 281.534 172.322 284.071 172.213C286.609 172.108 289.376 172.213 291.34 173.83C292.953 175.161 293.689 177.253 294.347 179.241C295.298 182.085 296.269 184.918 297.193 187.772C297.762 189.525 298.848 192.212 297.021 193.59C293.799 196.016 287.967 192.432 286.108 189.817Z" fill="#04D361"/>
<path d="M296.002 193.693C291.971 184.343 283.44 176.381 273.226 172.869" stroke="white" stroke-width="0.8174" stroke-miterlimit="10" stroke-linecap="round" stroke-linejoin="round"/>
<path d="M63.7663 193.264C64.9203 191.547 65.5886 189.345 67.1394 188.088C68.9199 186.653 71.3688 186.841 73.6245 186.815C75.8749 186.794 78.4178 186.288 79.483 184.117C80.0678 182.928 80.073 181.456 80.4855 180.167C80.9346 178.753 81.8431 177.626 82.4853 176.322C83.1224 175.017 83.467 173.322 82.7516 171.97C82.0206 170.603 80.4072 170.087 79.0809 170.4C77.7547 170.713 76.6582 171.673 75.6609 172.664C74.6636 173.656 73.6871 174.725 72.4549 175.331C70.4185 176.332 68.0166 175.915 65.74 175.617C63.4635 175.325 60.9833 175.231 59.2132 176.718C57.7564 177.945 57.0828 180.006 56.4719 181.962C55.5999 184.764 54.707 187.556 53.8559 190.368C53.3338 192.1 52.3365 194.73 53.9656 196.259C56.8217 198.962 62.0798 195.768 63.7663 193.264Z" fill="#04D361"/>
<path d="M54.8688 196.457C58.5551 187.305 66.2621 179.891 75.4414 177.089" stroke="white" stroke-width="0.7781" stroke-miterlimit="10" stroke-linecap="round" stroke-linejoin="round"/>
<path d="M49.8145 188.459C49.6892 186.648 49.9816 184.764 49.4646 183.048C48.5404 179.995 45.3344 178.404 44.5303 175.31C43.5696 171.61 46.5041 167.833 45.9976 164.013C45.7835 162.406 44.9742 160.992 44.4729 159.469C43.9716 157.945 43.8411 156.041 44.8175 154.856C45.8409 153.614 47.6893 153.76 48.9059 154.752C50.1173 155.743 50.817 157.345 51.3862 158.921C51.9501 160.497 52.4513 162.151 53.4069 163.46C55.1508 165.845 58.289 166.888 59.2393 169.805C60.2105 172.774 58.3725 175.91 58.0488 179.056C57.8034 181.441 58.4352 183.81 58.9991 186.121C59.563 188.432 60.059 190.88 59.5421 193.207C58.8581 196.301 56.4249 198.273 54.0961 196.29C51.7934 194.334 50.0547 191.86 49.8145 188.459Z" fill="#04D361"/>
<path d="M55.5685 197.041C56.4927 185.995 54.3728 174.01 49.4332 164.467" stroke="white" stroke-width="0.9754" stroke-miterlimit="10" stroke-linecap="round" stroke-linejoin="round"/>
<path d="M51.1541 185.447L51.1535 185.447C50.5457 185.026 49.8975 184.715 49.2117 184.386C48.9903 184.28 48.765 184.172 48.5359 184.058C47.6205 183.601 46.6836 183.061 45.9175 182.175C44.846 180.943 44.3488 179.295 43.9 177.809C43.8356 177.596 43.7722 177.386 43.7083 177.181L43.7079 177.179C43.4514 176.349 43.1389 175.511 42.7284 174.786C42.3174 174.06 41.8243 173.475 41.2204 173.115C39.8389 172.297 38.2574 172.884 36.845 173.827L36.844 173.827C36.6854 173.932 36.5226 174.043 36.3561 174.157C35.8019 174.535 35.2074 174.94 34.5943 175.253C33.7821 175.669 32.877 175.959 31.8638 175.854L51.1541 185.447ZM51.1541 185.447C52.8795 186.639 54.1564 188.692 54.9409 190.881L51.1541 185.447ZM27.6479 174.495L27.6471 174.495C25.9448 174.255 24.4694 175.377 22.9818 176.645L22.9813 176.646C21.9196 177.548 20.9506 178.433 20.6431 179.739C20.2704 181.335 21.0493 183.352 22.3443 184.621L22.345 184.622C23.6273 185.884 25.3046 186.481 26.9257 186.625L26.9267 186.625C27.1151 186.642 27.316 186.656 27.5247 186.67C28.1211 186.712 28.781 186.758 29.3928 186.893C30.2479 187.082 31.0967 187.458 31.7445 188.286M27.6479 174.495L54.9411 190.881L54.9717 190.967C55.2657 191.79 55.6861 192.967 55.9285 194.111C56.0538 194.703 56.1268 195.266 56.1154 195.752C56.1039 196.244 56.0068 196.607 55.8415 196.846L55.8404 196.847C55.486 197.363 54.8381 197.473 53.8928 197.239C52.9715 197.012 51.9897 196.504 51.2653 196.12L51.2649 196.12C51.0112 195.986 50.7515 195.844 50.4881 195.7C49.9127 195.386 49.3192 195.062 48.7297 194.784C47.8609 194.373 46.9463 194.034 45.991 193.926L45.9909 193.926C44.2805 193.733 42.6939 194.321 41.2884 194.87L41.2686 194.878C39.8394 195.436 38.4989 195.96 37.0637 195.87C35.6434 195.78 34.0859 194.927 33.3974 193.445C33.1074 192.817 32.9814 192.123 32.8433 191.362C32.8183 191.224 32.7929 191.084 32.7661 190.942C32.5979 190.052 32.3721 189.084 31.7445 188.286M27.6479 174.495C28.2707 174.582 28.8931 174.848 29.5933 175.146M27.6479 174.495L29.5933 175.146M31.7445 188.286C31.7446 188.286 31.7448 188.286 31.7449 188.286L31.3512 188.594M31.7445 188.286C31.7444 188.285 31.7443 188.285 31.7442 188.285L31.3512 188.594M31.3512 188.594C30.3939 187.371 28.9134 187.269 27.5243 187.172C27.307 187.157 27.092 187.142 26.8816 187.123L31.3512 188.594ZM29.5933 175.146L29.6221 175.158M29.5933 175.146L29.6221 175.158M29.6221 175.158C30.3055 175.449 31.0687 175.772 31.8637 175.854L29.6221 175.158Z" fill="#04D361" stroke="#04D361"/>
<path d="M55.9445 196.917C47.4282 188.328 37.5544 182.37 26.9652 179.427" stroke="white" stroke-width="0.8986" stroke-miterlimit="10" stroke-linecap="round" stroke-linejoin="round"/>
<path d="M299.966 41.3413C299.966 42.9954 298.624 44.3363 296.969 44.3363C295.314 44.3363 293.972 42.9954 293.972 41.3413C293.972 39.6873 295.314 38.3463 296.969 38.3463C298.619 38.3463 299.966 39.6873 299.966 41.3413Z" stroke="#04D361" stroke-width="2" stroke-miterlimit="10" stroke-linecap="round" stroke-linejoin="round"/>
<path d="M299.136 43.4067L301.25 45.5248" stroke="#04D361" stroke-width="2" stroke-miterlimit="10" stroke-linecap="round" stroke-linejoin="round"/>
<path d="M182.705 1L185.858 4.15098" stroke="#04D361" stroke-width="2" stroke-miterlimit="10" stroke-linecap="round" stroke-linejoin="round"/>
<path d="M185.858 1L182.705 4.15098" stroke="#04D361" stroke-width="2" stroke-miterlimit="10" stroke-linecap="round" stroke-linejoin="round"/>
<path d="M227.9 182.405L231.053 185.556" stroke="#04D361" stroke-width="2" stroke-miterlimit="10" stroke-linecap="round" stroke-linejoin="round"/>
<path d="M231.053 182.405L227.9 185.556" stroke="#04D361" stroke-width="2" stroke-miterlimit="10" stroke-linecap="round" stroke-linejoin="round"/>
<path d="M27.7922 140.649V145.105" stroke="#04D361" stroke-width="2" stroke-miterlimit="10" stroke-linecap="round" stroke-linejoin="round"/>
<path d="M30.0275 142.877H25.5631" stroke="#04D361" stroke-width="2" stroke-miterlimit="10" stroke-linecap="round" stroke-linejoin="round"/>
<path d="M18.0945 106.436C18.0945 107.929 16.8831 109.144 15.3845 109.144C13.8912 109.144 12.6746 107.934 12.6746 106.436C12.6746 104.944 13.8859 103.728 15.3845 103.728C16.8831 103.734 18.0945 104.944 18.0945 106.436Z" stroke="#04D361" stroke-width="2" stroke-miterlimit="10" stroke-linecap="round" stroke-linejoin="round"/>
<path d="M130.573 171.933C130.573 173.425 129.362 174.641 127.863 174.641C126.37 174.641 125.153 173.43 125.153 171.933C125.153 170.441 126.364 169.225 127.863 169.225C129.362 169.23 130.573 170.441 130.573 171.933Z" stroke="#04D361" stroke-width="2" stroke-miterlimit="10" stroke-linecap="round" stroke-linejoin="round"/>
<path d="M309.41 123.163C309.41 124.655 308.198 125.871 306.7 125.871C305.206 125.871 303.99 124.661 303.99 123.163C303.99 121.671 305.201 120.455 306.7 120.455C308.198 120.46 309.41 121.671 309.41 123.163Z" stroke="#04D361" stroke-width="2" stroke-miterlimit="10" stroke-linecap="round" stroke-linejoin="round"/>
<path d="M1.46294 58.9792C1.46294 59.2444 1.24772 59.46 0.981472 59.46C0.71522 59.46 0.5 59.2444 0.5 58.9792C0.5 58.7141 0.715226 58.4985 0.981472 58.4985C1.24772 58.4985 1.46294 58.7141 1.46294 58.9792Z" fill="#9871F5" stroke="#9871F5"/>
<path d="M8.31878 58.9788C8.31878 59.244 8.10356 59.4595 7.83731 59.4595C7.57106 59.4595 7.35583 59.244 7.35583 58.9788C7.35583 58.7136 7.57106 58.498 7.83731 58.498C8.10355 58.498 8.31878 58.7136 8.31878 58.9788Z" fill="#9871F5" stroke="#9871F5"/>
<path d="M15.1694 58.9788C15.1694 59.244 14.9541 59.4595 14.6879 59.4595C14.4216 59.4595 14.2064 59.244 14.2064 58.9788C14.2064 58.7136 14.4216 58.498 14.6879 58.498C14.9541 58.498 15.1694 58.7136 15.1694 58.9788Z" fill="#9871F5" stroke="#9871F5"/>
<path d="M22.0252 58.9788C22.0252 59.244 21.81 59.4595 21.5437 59.4595C21.2775 59.4595 21.0623 59.244 21.0623 58.9788C21.0623 58.7136 21.2775 58.498 21.5437 58.498C21.81 58.498 22.0252 58.7136 22.0252 58.9788Z" fill="#9871F5" stroke="#9871F5"/>
<path d="M28.8758 58.9788C28.8758 59.244 28.6606 59.4595 28.3943 59.4595C28.1281 59.4595 27.9128 59.244 27.9128 58.9788C27.9128 58.7136 28.1281 58.498 28.3943 58.498C28.6606 58.498 28.8758 58.7136 28.8758 58.9788Z" fill="#9871F5" stroke="#9871F5"/>
<path d="M35.7316 58.9788C35.7316 59.244 35.5164 59.4595 35.2501 59.4595C34.9839 59.4595 34.7687 59.244 34.7687 58.9788C34.7687 58.7136 34.9839 58.498 35.2501 58.498C35.5164 58.498 35.7316 58.7136 35.7316 58.9788Z" fill="#9871F5" stroke="#9871F5"/>
<path d="M1.46294 65.8245C1.46294 66.0897 1.24772 66.3053 0.981472 66.3053C0.715225 66.3053 0.5 66.0897 0.5 65.8245C0.5 65.5593 0.715225 65.3438 0.981472 65.3438C1.24772 65.3438 1.46294 65.5593 1.46294 65.8245Z" fill="#9871F5" stroke="#9871F5"/>
<path d="M8.31878 65.8245C8.31878 66.0897 8.10355 66.3053 7.83731 66.3053C7.57106 66.3053 7.35583 66.0897 7.35583 65.8245C7.35583 65.5593 7.57106 65.3438 7.83731 65.3438C8.10355 65.3438 8.31878 65.5593 8.31878 65.8245Z" fill="#9871F5" stroke="#9871F5"/>
<path d="M15.1695 65.8245C15.1695 66.0897 14.9543 66.3053 14.688 66.3053C14.4218 66.3053 14.2065 66.0897 14.2065 65.8245C14.2065 65.5593 14.4218 65.3438 14.688 65.3438C14.9543 65.3438 15.1695 65.5593 15.1695 65.8245Z" fill="#9871F5" stroke="#9871F5"/>
<path d="M22.0252 65.8245C22.0252 66.0897 21.81 66.3053 21.5437 66.3053C21.2775 66.3053 21.0623 66.0897 21.0623 65.8245C21.0623 65.5593 21.2775 65.3438 21.5437 65.3438C21.81 65.3438 22.0252 65.5593 22.0252 65.8245Z" fill="#9871F5" stroke="#9871F5"/>
<path d="M28.8758 65.8245C28.8758 66.0897 28.6606 66.3053 28.3943 66.3053C28.1281 66.3053 27.9128 66.0897 27.9128 65.8245C27.9128 65.5593 28.1281 65.3438 28.3943 65.3438C28.6606 65.3438 28.8758 65.5593 28.8758 65.8245Z" fill="#9871F5" stroke="#9871F5"/>
<path d="M35.7315 65.8245C35.7315 66.0897 35.5163 66.3053 35.25 66.3053C34.9838 66.3053 34.7686 66.0897 34.7686 65.8245C34.7686 65.5593 34.9838 65.3438 35.25 65.3438C35.5163 65.3438 35.7315 65.5593 35.7315 65.8245Z" fill="#9871F5" stroke="#9871F5"/>
<path d="M1.46294 72.6755C1.46294 72.9407 1.24772 73.1562 0.981472 73.1562C0.71522 73.1562 0.5 72.9407 0.5 72.6755C0.5 72.4103 0.715226 72.1947 0.981472 72.1947C1.24772 72.1947 1.46294 72.4103 1.46294 72.6755Z" fill="#9871F5" stroke="#9871F5"/>
<path d="M8.31878 72.6755C8.31878 72.9407 8.10356 73.1562 7.83731 73.1562C7.57106 73.1562 7.35583 72.9407 7.35583 72.6755C7.35583 72.4103 7.57106 72.1947 7.83731 72.1947C8.10355 72.1947 8.31878 72.4103 8.31878 72.6755Z" fill="#9871F5" stroke="#9871F5"/>
<path d="M15.1695 72.6755C15.1695 72.9407 14.9543 73.1562 14.688 73.1562C14.4218 73.1562 14.2065 72.9407 14.2065 72.6755C14.2065 72.4103 14.4218 72.1947 14.688 72.1947C14.9543 72.1947 15.1695 72.4103 15.1695 72.6755Z" fill="#9871F5" stroke="#9871F5"/>
<path d="M22.0252 72.6755C22.0252 72.9406 21.81 73.1562 21.5437 73.1562C21.2775 73.1562 21.0623 72.9407 21.0623 72.6755C21.0623 72.4103 21.2775 72.1947 21.5437 72.1947C21.81 72.1947 22.0252 72.4103 22.0252 72.6755Z" fill="#9871F5" stroke="#9871F5"/>
<path d="M28.8758 72.6755C28.8758 72.9407 28.6606 73.1562 28.3943 73.1562C28.1281 73.1562 27.9128 72.9407 27.9128 72.6755C27.9128 72.4103 28.1281 72.1947 28.3943 72.1947C28.6606 72.1947 28.8758 72.4103 28.8758 72.6755Z" fill="#9871F5" stroke="#9871F5"/>
<path d="M35.7315 72.6755C35.7315 72.9406 35.5163 73.1562 35.25 73.1562C34.9838 73.1562 34.7686 72.9407 34.7686 72.6755C34.7686 72.4103 34.9838 72.1947 35.25 72.1947C35.5163 72.1947 35.7315 72.4103 35.7315 72.6755Z" fill="#9871F5" stroke="#9871F5"/>
<path d="M1.46294 79.521C1.46294 79.7862 1.24772 80.0018 0.981472 80.0018C0.715226 80.0018 0.5 79.7862 0.5 79.521C0.5 79.2558 0.715226 79.0403 0.981472 79.0403C1.24772 79.0403 1.46294 79.2558 1.46294 79.521Z" fill="#9871F5" stroke="#9871F5"/>
<path d="M8.31878 79.521C8.31878 79.7862 8.10355 80.0018 7.83731 80.0018C7.57106 80.0018 7.35583 79.7862 7.35583 79.521C7.35583 79.2558 7.57106 79.0403 7.83731 79.0403C8.10355 79.0403 8.31878 79.2558 8.31878 79.521Z" fill="#9871F5" stroke="#9871F5"/>
<path d="M15.1695 79.521C15.1695 79.7862 14.9543 80.0018 14.688 80.0018C14.4218 80.0018 14.2065 79.7862 14.2065 79.521C14.2065 79.2558 14.4218 79.0403 14.688 79.0403C14.9543 79.0403 15.1695 79.2558 15.1695 79.521Z" fill="#9871F5" stroke="#9871F5"/>
<path d="M22.0252 79.521C22.0252 79.7862 21.81 80.0018 21.5437 80.0018C21.2775 80.0018 21.0623 79.7862 21.0623 79.521C21.0623 79.2558 21.2775 79.0403 21.5437 79.0403C21.81 79.0403 22.0252 79.2558 22.0252 79.521Z" fill="#9871F5" stroke="#9871F5"/>
<path d="M28.8758 79.521C28.8758 79.7862 28.6606 80.0018 28.3943 80.0018C28.1281 80.0018 27.9128 79.7862 27.9128 79.521C27.9128 79.2558 28.1281 79.0403 28.3943 79.0403C28.6606 79.0403 28.8758 79.2558 28.8758 79.521Z" fill="#9871F5" stroke="#9871F5"/>
<path d="M35.7315 79.521C35.7315 79.7862 35.5163 80.0018 35.25 80.0018C34.9838 80.0018 34.7686 79.7862 34.7686 79.521C34.7686 79.2558 34.9838 79.0403 35.25 79.0403C35.5163 79.0403 35.7315 79.2558 35.7315 79.521Z" fill="#9871F5" stroke="#9871F5"/>
<path d="M107.224 187.965C107.224 188.231 107.008 188.446 106.742 188.446C106.476 188.446 106.261 188.231 106.261 187.965C106.261 187.7 106.476 187.485 106.742 187.485C107.008 187.485 107.224 187.7 107.224 187.965Z" fill="#9871F5" stroke="#9871F5"/>
<path d="M114.079 187.965C114.079 188.231 113.864 188.446 113.598 188.446C113.332 188.446 113.116 188.231 113.116 187.965C113.116 187.7 113.332 187.485 113.598 187.485C113.864 187.485 114.079 187.7 114.079 187.965Z" fill="#9871F5" stroke="#9871F5"/>
<path d="M120.93 187.965C120.93 188.231 120.715 188.446 120.449 188.446C120.182 188.446 119.967 188.231 119.967 187.965C119.967 187.7 120.182 187.485 120.449 187.485C120.715 187.485 120.93 187.7 120.93 187.965Z" fill="#9871F5" stroke="#9871F5"/>
<path d="M127.786 187.965C127.786 188.231 127.571 188.446 127.304 188.446C127.038 188.446 126.823 188.231 126.823 187.965C126.823 187.7 127.038 187.485 127.304 187.485C127.571 187.485 127.786 187.7 127.786 187.965Z" fill="#9871F5" stroke="#9871F5"/>
<path d="M134.636 187.965C134.636 188.231 134.421 188.446 134.155 188.446C133.889 188.446 133.673 188.231 133.673 187.965C133.673 187.7 133.889 187.485 134.155 187.485C134.421 187.485 134.636 187.7 134.636 187.965Z" fill="#9871F5" stroke="#9871F5"/>
<path d="M107.224 194.816C107.224 195.081 107.008 195.297 106.742 195.297C106.476 195.297 106.261 195.081 106.261 194.816C106.261 194.551 106.476 194.335 106.742 194.335C107.008 194.335 107.224 194.551 107.224 194.816Z" fill="#9871F5" stroke="#9871F5"/>
<path d="M114.079 194.816C114.079 195.081 113.864 195.297 113.598 195.297C113.332 195.297 113.116 195.081 113.116 194.816C113.116 194.551 113.332 194.335 113.598 194.335C113.864 194.335 114.079 194.551 114.079 194.816Z" fill="#9871F5" stroke="#9871F5"/>
<path d="M120.93 194.816C120.93 195.081 120.715 195.297 120.449 195.297C120.182 195.297 119.967 195.081 119.967 194.816C119.967 194.551 120.182 194.335 120.449 194.335C120.715 194.335 120.93 194.551 120.93 194.816Z" fill="#9871F5" stroke="#9871F5"/>
<path d="M127.786 194.816C127.786 195.081 127.571 195.297 127.304 195.297C127.038 195.297 126.823 195.081 126.823 194.816C126.823 194.551 127.038 194.335 127.304 194.335C127.571 194.335 127.786 194.551 127.786 194.816Z" fill="#9871F5" stroke="#9871F5"/>
<path d="M134.636 194.816C134.636 195.081 134.421 195.297 134.155 195.297C133.889 195.297 133.673 195.081 133.673 194.816C133.673 194.551 133.889 194.335 134.155 194.335C134.421 194.335 134.636 194.551 134.636 194.816Z" fill="#9871F5" stroke="#9871F5"/>
<path d="M280.903 16.656C280.903 16.9212 280.688 17.1367 280.422 17.1367C280.155 17.1367 279.94 16.9212 279.94 16.656C279.94 16.3908 280.155 16.1752 280.422 16.1752C280.688 16.1752 280.903 16.3908 280.903 16.656Z" fill="#9871F5" stroke="#9871F5"/>
<path d="M287.754 16.6556C287.754 16.9208 287.539 17.1364 287.272 17.1364C287.006 17.1364 286.791 16.9208 286.791 16.6556C286.791 16.3905 287.006 16.1749 287.272 16.1749C287.539 16.1749 287.754 16.3905 287.754 16.6556Z" fill="#9871F5" stroke="#9871F5"/>
<path d="M294.61 16.6556C294.61 16.9208 294.394 17.1364 294.128 17.1364C293.862 17.1364 293.647 16.9208 293.647 16.6556C293.647 16.3904 293.862 16.1749 294.128 16.1749C294.394 16.1749 294.61 16.3904 294.61 16.6556Z" fill="#9871F5" stroke="#9871F5"/>
<path d="M280.903 23.5066C280.903 23.7718 280.688 23.9874 280.422 23.9874C280.155 23.9874 279.94 23.7718 279.94 23.5066C279.94 23.2414 280.155 23.0258 280.422 23.0258C280.688 23.0258 280.903 23.2414 280.903 23.5066Z" fill="#9871F5" stroke="#9871F5"/>
<path d="M287.754 23.5066C287.754 23.7718 287.539 23.9874 287.272 23.9874C287.006 23.9874 286.791 23.7718 286.791 23.5066C286.791 23.2414 287.006 23.0258 287.272 23.0258C287.539 23.0258 287.754 23.2414 287.754 23.5066Z" fill="#9871F5" stroke="#9871F5"/>
<path d="M294.61 23.5066C294.61 23.7718 294.394 23.9874 294.128 23.9874C293.862 23.9874 293.647 23.7718 293.647 23.5066C293.647 23.2414 293.862 23.0258 294.128 23.0258C294.394 23.0258 294.61 23.2414 294.61 23.5066Z" fill="#9871F5" stroke="#9871F5"/>
<path d="M101.474 3.69472C101.474 3.95992 101.258 4.17549 100.992 4.17549C100.726 4.17549 100.511 3.9599 100.511 3.69472C100.511 3.42955 100.726 3.21396 100.992 3.21396C101.258 3.21396 101.474 3.42953 101.474 3.69472Z" fill="#9871F5" stroke="#9871F5"/>
<path d="M108.324 3.69448C108.324 3.95966 108.109 4.17525 107.843 4.17525C107.577 4.17525 107.361 3.95966 107.361 3.69448C107.361 3.4293 107.577 3.21371 107.843 3.21371C108.109 3.21371 108.324 3.4293 108.324 3.69448Z" fill="#9871F5" stroke="#9871F5"/>
<path d="M115.18 3.69448C115.18 3.95968 114.965 4.17525 114.699 4.17525C114.432 4.17525 114.217 3.95966 114.217 3.69448C114.217 3.4293 114.432 3.21371 114.699 3.21371C114.965 3.21371 115.18 3.42928 115.18 3.69448Z" fill="#9871F5" stroke="#9871F5"/>
<path d="M101.474 10.5452C101.474 10.8104 101.258 11.026 100.992 11.026C100.726 11.026 100.511 10.8104 100.511 10.5452C100.511 10.2801 100.726 10.0645 100.992 10.0645C101.258 10.0645 101.474 10.2801 101.474 10.5452Z" fill="#9871F5" stroke="#9871F5"/>
<path d="M108.324 10.5452C108.324 10.8104 108.109 11.026 107.843 11.026C107.576 11.026 107.361 10.8104 107.361 10.5452C107.361 10.2801 107.576 10.0645 107.843 10.0645C108.109 10.0645 108.324 10.2801 108.324 10.5452Z" fill="#9871F5" stroke="#9871F5"/>
<path d="M115.18 10.5452C115.18 10.8105 114.965 11.026 114.699 11.026C114.432 11.026 114.217 10.8104 114.217 10.5452C114.217 10.2801 114.432 10.0645 114.699 10.0645C114.965 10.0645 115.18 10.28 115.18 10.5452Z" fill="#9871F5" stroke="#9871F5"/>
<path d="M342.5 109.229C342.5 109.494 342.285 109.709 342.018 109.709C341.752 109.709 341.537 109.494 341.537 109.229C341.537 108.963 341.752 108.748 342.018 108.748C342.285 108.748 342.5 108.963 342.5 109.229Z" fill="#9871F5" stroke="#9871F5"/>
<path d="M342.5 116.08C342.5 116.345 342.285 116.56 342.018 116.56C341.752 116.56 341.537 116.345 341.537 116.08C341.537 115.814 341.752 115.599 342.018 115.599C342.285 115.599 342.5 115.814 342.5 116.08Z" fill="#9871F5" stroke="#9871F5"/>
<path d="M342.5 122.925C342.5 123.19 342.285 123.406 342.018 123.406C341.752 123.406 341.537 123.19 341.537 122.925C341.537 122.66 341.752 122.444 342.018 122.444C342.285 122.444 342.5 122.66 342.5 122.925Z" fill="#9871F5" stroke="#9871F5"/>
<path d="M342.5 129.776C342.5 130.041 342.285 130.257 342.018 130.257C341.752 130.257 341.537 130.041 341.537 129.776C341.537 129.511 341.752 129.295 342.018 129.295C342.285 129.295 342.5 129.511 342.5 129.776Z" fill="#9871F5" stroke="#9871F5"/>
<path d="M342.5 136.622C342.5 136.887 342.285 137.102 342.018 137.102C341.752 137.102 341.537 136.887 341.537 136.622C341.537 136.356 341.752 136.141 342.018 136.141C342.285 136.141 342.5 136.356 342.5 136.622Z" fill="#9871F5" stroke="#9871F5"/>
<path d="M342.5 143.473C342.5 143.738 342.285 143.953 342.018 143.953C341.752 143.953 341.537 143.738 341.537 143.473C341.537 143.207 341.752 142.992 342.018 142.992C342.285 142.992 342.5 143.207 342.5 143.473Z" fill="#9871F5" stroke="#9871F5"/>
<path d="M342.5 150.318C342.5 150.583 342.285 150.799 342.018 150.799C341.752 150.799 341.537 150.583 341.537 150.318C341.537 150.053 341.752 149.837 342.018 149.837C342.285 149.837 342.5 150.053 342.5 150.318Z" fill="#9871F5" stroke="#9871F5"/>
<path d="M335.644 109.229C335.644 109.494 335.429 109.709 335.163 109.709C334.896 109.709 334.681 109.494 334.681 109.229C334.681 108.963 334.896 108.748 335.163 108.748C335.429 108.748 335.644 108.963 335.644 109.229Z" fill="#9871F5" stroke="#9871F5"/>
<path d="M335.644 116.08C335.644 116.345 335.429 116.56 335.163 116.56C334.896 116.56 334.681 116.345 334.681 116.08C334.681 115.814 334.896 115.599 335.163 115.599C335.429 115.599 335.644 115.814 335.644 116.08Z" fill="#9871F5" stroke="#9871F5"/>
<path d="M335.644 122.925C335.644 123.19 335.429 123.406 335.163 123.406C334.896 123.406 334.681 123.19 334.681 122.925C334.681 122.66 334.896 122.444 335.163 122.444C335.429 122.444 335.644 122.66 335.644 122.925Z" fill="#9871F5" stroke="#9871F5"/>
<path d="M335.644 129.776C335.644 130.041 335.429 130.257 335.163 130.257C334.896 130.257 334.681 130.041 334.681 129.776C334.681 129.511 334.896 129.295 335.163 129.295C335.429 129.295 335.644 129.511 335.644 129.776Z" fill="#9871F5" stroke="#9871F5"/>
<path d="M335.644 136.622C335.644 136.887 335.429 137.102 335.163 137.102C334.896 137.102 334.681 136.887 334.681 136.622C334.681 136.356 334.896 136.141 335.163 136.141C335.429 136.141 335.644 136.356 335.644 136.622Z" fill="#9871F5" stroke="#9871F5"/>
<path d="M335.644 143.473C335.644 143.738 335.429 143.953 335.163 143.953C334.896 143.953 334.681 143.738 334.681 143.473C334.681 143.207 334.896 142.992 335.163 142.992C335.429 142.992 335.644 143.207 335.644 143.473Z" fill="#9871F5" stroke="#9871F5"/>
<path d="M335.644 150.318C335.644 150.583 335.429 150.799 335.163 150.799C334.896 150.799 334.681 150.583 334.681 150.318C334.681 150.053 334.896 149.837 335.163 149.837C335.429 149.837 335.644 150.053 335.644 150.318Z" fill="#9871F5" stroke="#9871F5"/>
<path d="M328.794 109.229C328.794 109.494 328.578 109.709 328.312 109.709C328.046 109.709 327.831 109.494 327.831 109.229C327.831 108.963 328.046 108.748 328.312 108.748C328.578 108.748 328.794 108.963 328.794 109.229Z" fill="#9871F5" stroke="#9871F5"/>
<path d="M328.794 116.08C328.794 116.345 328.578 116.56 328.312 116.56C328.046 116.56 327.831 116.345 327.831 116.08C327.831 115.814 328.046 115.599 328.312 115.599C328.578 115.599 328.794 115.814 328.794 116.08Z" fill="#9871F5" stroke="#9871F5"/>
<path d="M328.794 122.925C328.794 123.19 328.578 123.406 328.312 123.406C328.046 123.406 327.831 123.19 327.831 122.925C327.831 122.66 328.046 122.444 328.312 122.444C328.578 122.444 328.794 122.66 328.794 122.925Z" fill="#9871F5" stroke="#9871F5"/>
<path d="M328.794 129.776C328.794 130.041 328.578 130.257 328.312 130.257C328.046 130.257 327.831 130.041 327.831 129.776C327.831 129.511 328.046 129.295 328.312 129.295C328.578 129.295 328.794 129.511 328.794 129.776Z" fill="#9871F5" stroke="#9871F5"/>
<path d="M328.794 136.622C328.794 136.887 328.578 137.102 328.312 137.102C328.046 137.102 327.831 136.887 327.831 136.622C327.831 136.356 328.046 136.141 328.312 136.141C328.578 136.141 328.794 136.356 328.794 136.622Z" fill="#9871F5" stroke="#9871F5"/>
<path d="M328.794 143.473C328.794 143.738 328.578 143.953 328.312 143.953C328.046 143.953 327.831 143.738 327.831 143.473C327.831 143.207 328.046 142.992 328.312 142.992C328.578 142.992 328.794 143.207 328.794 143.473Z" fill="#9871F5" stroke="#9871F5"/>
<path d="M328.794 150.318C328.794 150.583 328.578 150.799 328.312 150.799C328.046 150.799 327.831 150.583 327.831 150.318C327.831 150.053 328.046 149.837 328.312 149.837C328.578 149.837 328.794 150.053 328.794 150.318Z" fill="#9871F5" stroke="#9871F5"/>
<path d="M321.938 109.228C321.938 109.494 321.722 109.709 321.456 109.709C321.19 109.709 320.975 109.494 320.975 109.228C320.975 108.963 321.19 108.748 321.456 108.748C321.722 108.748 321.938 108.963 321.938 109.228Z" fill="#9871F5" stroke="#9871F5"/>
<path d="M321.938 116.08C321.938 116.345 321.722 116.56 321.456 116.56C321.19 116.56 320.975 116.345 320.975 116.08C320.975 115.814 321.19 115.599 321.456 115.599C321.722 115.599 321.938 115.814 321.938 116.08Z" fill="#9871F5" stroke="#9871F5"/>
<path d="M321.938 122.925C321.938 123.19 321.722 123.406 321.456 123.406C321.19 123.406 320.975 123.19 320.975 122.925C320.975 122.66 321.19 122.444 321.456 122.444C321.722 122.444 321.938 122.66 321.938 122.925Z" fill="#9871F5" stroke="#9871F5"/>
<path d="M321.938 129.776C321.938 130.041 321.722 130.257 321.456 130.257C321.19 130.257 320.975 130.041 320.975 129.776C320.975 129.511 321.19 129.295 321.456 129.295C321.722 129.295 321.938 129.511 321.938 129.776Z" fill="#9871F5" stroke="#9871F5"/>
<path d="M321.938 136.622C321.938 136.887 321.722 137.102 321.456 137.102C321.19 137.102 320.975 136.887 320.975 136.622C320.975 136.356 321.19 136.141 321.456 136.141C321.722 136.141 321.938 136.356 321.938 136.622Z" fill="#9871F5" stroke="#9871F5"/>
<path d="M321.938 143.473C321.938 143.738 321.722 143.953 321.456 143.953C321.19 143.953 320.975 143.738 320.975 143.473C320.975 143.207 321.19 142.992 321.456 142.992C321.722 142.992 321.938 143.207 321.938 143.473Z" fill="#9871F5" stroke="#9871F5"/>
<path d="M321.938 150.318C321.938 150.583 321.722 150.799 321.456 150.799C321.19 150.799 320.975 150.583 320.975 150.318C320.975 150.053 321.19 149.837 321.456 149.837C321.722 149.837 321.938 150.053 321.938 150.318Z" fill="#9871F5" stroke="#9871F5"/>
<path d="M262.861 149.838H84.9119C81.8184 149.838 79.3027 147.31 79.3027 144.185V34.7319C79.3027 31.6071 81.8184 29.0785 84.9119 29.0785H262.867C265.96 29.0785 268.476 31.6071 268.476 34.7319V144.184C268.471 147.31 265.955 149.838 262.861 149.838Z" fill="#04D361" stroke="#04D361"/>
<path d="M262.604 145.154H85.1674C82.4157 145.154 80.1809 142.921 80.1809 140.171V34.7567C80.1809 32.007 82.4157 29.7738 85.1674 29.7738H262.604C265.356 29.7738 267.591 32.007 267.591 34.7567V140.171C267.591 142.926 265.356 145.154 262.604 145.154Z" fill="white"/>
<path d="M204.249 39.6349V114.009C204.249 116.252 202.432 118.068 200.187 118.068H88.123C87.1152 118.068 86.191 117.703 85.4809 117.092C84.6141 116.346 84.0607 115.245 84.0607 114.009V39.6349C84.0607 37.3912 85.883 35.5754 88.123 35.5754H200.187C201.194 35.5754 202.124 35.9407 202.829 36.5512C203.701 37.2973 204.249 38.3982 204.249 39.6349Z" fill="#E6E6F0"/>
<path d="M259.684 67.3669H213.296C211.051 67.3669 209.234 65.5512 209.234 63.3075V39.6346C209.234 37.391 211.051 35.5752 213.296 35.5752H259.684C261.929 35.5752 263.746 37.391 263.746 39.6346V63.3075C263.746 65.5512 261.924 67.3669 259.684 67.3669Z" fill="#E6E6F0"/>
<path d="M259.684 104.792H213.296C211.051 104.792 209.234 102.976 209.234 100.732V77.0594C209.234 74.8158 211.051 73 213.296 73H259.684C261.929 73 263.746 74.8158 263.746 77.0594V100.732C263.746 102.976 261.924 104.792 259.684 104.792Z" fill="#E6E6F0"/>
<path d="M259.684 140.252H213.296C211.051 140.252 209.234 138.436 209.234 136.192V114.774C209.234 112.53 211.051 110.714 213.296 110.714H259.684C261.929 110.714 263.746 112.53 263.746 114.774V136.192C263.746 138.436 261.924 140.252 259.684 140.252Z" fill="#E6E6F0"/>
<path d="M145.345 126.051H85.5384C84.7238 126.051 84.0659 125.393 84.0659 124.579C84.0659 123.765 84.7238 123.108 85.5384 123.108H145.345C146.16 123.108 146.818 123.765 146.818 124.579C146.818 125.388 146.16 126.051 145.345 126.051Z" fill="#E6E6F0"/>
<path d="M148.797 139.856H85.5979C84.7371 139.856 84.0419 139.219 84.0419 138.429V132.713C84.0419 131.923 84.7371 131.285 85.5979 131.285H148.797C149.658 131.285 150.353 131.923 150.353 132.713V138.429C150.353 139.219 149.658 139.856 148.797 139.856Z" fill="#E6E6F0"/>
<path d="M189.624 126.051H202.777C203.591 126.051 204.249 125.393 204.249 124.579C204.249 123.765 203.591 123.108 202.777 123.108H189.624C188.809 123.108 188.151 123.765 188.151 124.579C188.151 125.388 188.809 126.051 189.624 126.051Z" fill="#E6E6F0"/>
<path d="M167.312 126.051H180.465C181.28 126.051 181.937 125.393 181.937 124.579C181.937 123.765 181.28 123.108 180.465 123.108H167.312C166.498 123.108 165.84 123.765 165.84 124.579C165.834 125.388 166.498 126.051 167.312 126.051Z" fill="#E6E6F0"/>
<path d="M176.69 139.92H202.777C203.591 139.92 204.249 139.262 204.249 138.448V132.558C204.249 131.744 203.591 131.086 202.777 131.086H176.69C175.875 131.086 175.218 131.744 175.218 132.558V138.448C175.218 139.262 175.875 139.92 176.69 139.92Z" fill="#E6E6F0"/>
<g opacity="0.24">
<path d="M236.322 59.9374C240.864 59.9374 244.546 56.2581 244.546 51.7195C244.546 47.1808 240.864 43.5015 236.322 43.5015C231.78 43.5015 228.098 47.1808 228.098 51.7195C228.098 56.2581 231.78 59.9374 236.322 59.9374Z" fill="#E6E6F0" stroke="#6842C2" stroke-width="2" stroke-miterlimit="10"/>
<path d="M239.692 50.9089L234.998 48.2009C234.481 47.9035 233.838 48.274 233.838 48.8688V54.2848C233.838 54.8797 234.481 55.2501 234.998 54.9527L239.692 52.2447C240.209 51.9473 240.209 51.2064 239.692 50.9089Z" fill="#E6E6F0" stroke="#6842C2" stroke-width="2" stroke-miterlimit="10"/>
</g>
<g opacity="0.24">
<path d="M236.322 96.8647C240.864 96.8647 244.546 93.1854 244.546 88.6468C244.546 84.1081 240.864 80.4288 236.322 80.4288C231.78 80.4288 228.098 84.1081 228.098 88.6468C228.098 93.1854 231.78 96.8647 236.322 96.8647Z" fill="#E6E6F0" stroke="#6842C2" stroke-width="2" stroke-miterlimit="10"/>
<path d="M239.692 87.8363L234.998 85.1283C234.481 84.8309 233.838 85.2014 233.838 85.7962V91.2122C233.838 91.807 234.481 92.1775 234.998 91.8801L239.692 89.1721C240.209 88.8746 240.209 88.1337 239.692 87.8363Z" fill="#E6E6F0" stroke="#6842C2" stroke-width="2" stroke-miterlimit="10"/>
</g>
<g opacity="0.24">
<path d="M236.322 133.436C240.864 133.436 244.546 129.757 244.546 125.218C244.546 120.679 240.864 117 236.322 117C231.78 117 228.098 120.679 228.098 125.218C228.098 129.757 231.78 133.436 236.322 133.436Z" fill="#E6E6F0" stroke="#6842C2" stroke-width="2" stroke-miterlimit="10"/>
<path d="M239.692 124.407L234.998 121.699C234.481 121.401 233.838 121.772 233.838 122.367V127.783C233.838 128.377 234.481 128.748 234.998 128.451L239.692 125.742C240.209 125.445 240.209 124.704 239.692 124.407Z" fill="#E6E6F0" stroke="#6842C2" stroke-width="2" stroke-miterlimit="10"/>
</g>
<path d="M202.829 36.5512L85.4809 117.092C84.6141 116.346 84.0607 115.245 84.0607 114.009V39.6349C84.0607 37.3912 85.883 35.5754 88.123 35.5754H200.187C201.194 35.5754 202.124 35.9407 202.829 36.5512Z" fill="#F2F2FA"/>
<mask id="mask0_188_862" style="mask-type:alpha" maskUnits="userSpaceOnUse" x="84" y="18" width="121" height="101">
<path d="M204.396 23.7536V113.335C204.396 116.038 202.582 118.225 200.34 118.225H88.4766C87.4706 118.225 86.5481 117.785 85.8392 117.05C84.974 116.151 84.4215 114.825 84.4215 113.335V23.7536C84.4215 21.0512 86.2406 18.8641 88.4766 18.8641H200.34C201.346 18.8641 202.274 19.3041 202.978 20.0394C203.848 20.9381 204.396 22.2641 204.396 23.7536Z" fill="#A3D1DE"/>
</mask>
<g mask="url(#mask0_188_862)">
<path d="M194.944 82.1236C194.944 82.1236 201.644 76.838 201.821 75.3249C202.155 72.476 203.179 70.2428 209.309 68.354C209.309 68.354 209.784 69.2619 208.933 70.248C208.003 71.3177 207.267 71.6933 207.267 71.6933C207.267 71.6933 208.891 72.3143 211.308 70.4254C213.726 68.5418 214.744 66.9035 215.762 67.3052C215.762 67.3052 216.963 66.2199 217.532 66.3921C217.532 66.3921 217.95 66.5173 217.872 66.9661C218.817 66.82 218.624 69.5436 216.942 71.756C214.525 74.9388 211.507 77.6781 209.037 78.5808C207.184 79.2591 199.524 87.0492 199.524 87.0492L194.944 82.1236Z" fill="#FFCAD0"/>
<path d="M174.257 109.088C171.333 110.075 155.11 85.1442 155.11 85.1442C148.839 77.9333 154.467 54.1821 160.143 62.5097C160.143 62.5097 174.904 89.1932 176.497 91.3429C178.476 94.0144 185.06 105.441 174.257 109.088Z" fill="#04D361"/>
<path d="M155.976 133.837H113.202C113.202 133.837 109.918 132.392 112.774 126.089C113.844 123.735 113.379 117.672 113.202 109.35C112.842 92.8933 107.954 65.5784 113.985 62.4477C117.598 60.5641 125.274 58.0857 130.845 56.3899C131.179 56.296 131.503 56.1969 131.822 56.1029C135.075 55.1324 137.398 54.4907 137.398 54.4907C137.398 54.4907 140.092 54.882 145.565 56.4995C145.862 56.5882 146.17 56.6821 146.489 56.776C147.914 57.2091 149.502 57.7152 151.266 58.3153C160.832 61.5659 159.757 60.4076 161.025 72.3458C162.038 81.8786 155.976 133.837 155.976 133.837Z" fill="#04D361"/>
<path d="M146.489 56.7708C146.363 58.7953 145.455 60.585 144.071 61.8946C142.667 63.2356 140.761 64.0496 138.683 64.0496C134.396 64.0496 130.929 60.6215 130.84 56.3899C131.174 56.296 131.498 56.1969 131.816 56.1029C135.069 55.1324 137.393 54.4907 137.393 54.4907C137.393 54.4907 140.087 54.882 145.559 56.4995C145.857 56.583 146.17 56.6769 146.489 56.7708Z" fill="#F2F2FA"/>
<path d="M145.549 39.683L144.875 52.6856L144.682 56.3954C144.604 57.9712 143.909 59.3748 142.834 60.387C141.769 61.3993 140.328 62.015 138.751 62.015C135.414 62.015 132.725 59.2652 132.814 55.9363L132.981 49.315L133.263 38.3159L145.549 39.683Z" fill="#FBD5D9"/>
<path d="M145.549 42.2809L144.875 54.5269C139.111 54.7565 134.908 52.419 132.981 49.2988L133.263 40.9243L145.549 42.2809Z" fill="#FFA4AD"/>
<path d="M129.435 26.9515C129.435 26.9515 123.911 26.2627 124.543 33.1815C125.034 38.5453 132.328 45.7041 132.328 45.7041C132.328 45.7041 136.933 29.5395 129.435 26.9515Z" fill="#8F4A3F"/>
<path d="M151.998 31.9338C151.622 32.7896 151.042 33.5357 150.567 34.3392C150.097 35.1428 149.721 36.0611 149.825 36.9898C149.731 35.4819 148.734 34.214 147.873 32.9774C147.011 31.7356 146.228 30.2329 146.64 28.7823C147.032 27.3892 149.554 25.1925 151.089 26.0952C152.796 27.097 152.666 30.4155 151.998 31.9338Z" fill="#0E1235"/>
<path d="M150.123 32.2105C150.123 32.2105 150.551 36.4473 149.956 41.1381C149.267 46.5593 149.512 52.925 141.518 53.3528C132.986 53.8067 130.161 44.2635 130.161 44.2635C130.161 44.2635 125.629 43.4182 125.321 40.3606C125.013 37.2978 128.177 37.1256 129.211 37.9865C129.211 37.9865 130.381 26.5753 140.933 26.5753C150.243 26.5649 150.123 32.2105 150.123 32.2105Z" fill="#FBD5D9"/>
<path d="M140.097 40.9186C140.097 41.3829 139.722 41.7637 139.252 41.7637C138.782 41.7637 138.406 41.3881 138.406 40.9186C138.406 40.4543 138.782 40.0734 139.252 40.0734C139.722 40.0734 140.097 40.4543 140.097 40.9186Z" fill="#9A5449"/>
<path d="M147.742 40.9186C147.742 41.3829 147.366 41.7637 146.896 41.7637C146.426 41.7637 146.05 41.3881 146.05 40.9186C146.05 40.4543 146.426 40.0734 146.896 40.0734C147.366 40.0734 147.742 40.4543 147.742 40.9186Z" fill="#9A5449"/>
<path d="M136.176 37.9816C136.176 37.9816 137.43 35.9206 140.098 36.6615" stroke="#561E15" stroke-width="1.0274" stroke-miterlimit="10" stroke-linecap="round" stroke-linejoin="round"/>
<path d="M144.698 36.63C144.698 36.63 146.625 34.8716 148.52 36.797" stroke="#561E15" stroke-width="1.0274" stroke-miterlimit="10" stroke-linecap="round" stroke-linejoin="round"/>
<path d="M143.006 38.7222C143.006 38.7222 143.92 41.0546 144.698 42.5051C145.476 43.9556 143.178 44.6026 143.178 44.6026" stroke="#D66D78" stroke-width="0.7706" stroke-miterlimit="10" stroke-linecap="round" stroke-linejoin="round"/>
<path d="M139.946 47.2114C139.946 47.2114 141.831 49.0376 144.254 47.921" stroke="#D66D78" stroke-width="0.7706" stroke-miterlimit="10" stroke-linecap="round" stroke-linejoin="round"/>
<path d="M129.059 41.3416C129.059 41.3416 129.033 38.7176 127.07 39.4323" stroke="#D66D78" stroke-width="0.7706" stroke-miterlimit="10" stroke-linecap="round" stroke-linejoin="round"/>
<path d="M131.649 29.1427C131.649 29.1427 136.448 34.0265 133.822 35.8945C130.898 37.9764 130.443 40.9192 130.443 40.9192C130.443 40.9192 130.506 39.8809 129.206 37.9816C127.906 36.0771 125.07 29.3254 131.649 29.1427Z" fill="#8F4A3F"/>
<path d="M174.257 109.089C177.745 111.359 204.254 83.0634 204.254 83.0634L199.55 76.9117C199.55 76.9117 179.395 89.549 176.497 91.3439C172.32 93.9267 162.524 101.461 174.257 109.089Z" fill="#04D361"/>
<path d="M160.159 92.6377C160.159 92.6377 161.344 79.7029 161.14 75.5965C161.14 75.5965 162.827 86.4547 162.869 96.4884L160.159 92.6377Z" fill="#03A14A"/>
<path d="M115.364 88.2283C115.364 88.2283 121.572 61.6647 114.93 61.9778C114.93 61.9778 112.763 62.2387 108.523 68.813C105.558 73.4099 102.31 81.3774 96.3886 94.3382C93.5899 100.464 90.0915 108.755 96.587 109.198C100.101 109.438 103.787 107.518 105.96 103.485C109.938 96.0966 115.364 88.2283 115.364 88.2283Z" fill="#04D361"/>
<path d="M120.919 121.293L154.707 113.336C154.702 113.336 144.077 121.293 120.919 121.293Z" fill="#03A14A"/>
<path d="M111.844 93.566C111.844 93.566 117.295 83.9184 120.193 79.212L113.39 116.117C113.39 116.117 112.727 101.043 111.844 93.566Z" fill="#03A14A"/>
<path d="M133.571 106.135L113.364 115.564L114.403 105.869L133.571 106.135Z" fill="#03A14A"/>
<path d="M137.091 104.562L137.091 104.561L140.428 86.3565L140.428 86.3555C140.583 85.4997 141.329 84.8776 142.207 84.8776H149.298C150.428 84.8776 151.282 85.9 151.078 87.0108L151.078 87.0111L147.741 105.215C147.741 105.215 147.741 105.215 147.741 105.215C147.581 106.074 146.833 106.695 145.961 106.695H138.871C137.741 106.695 136.887 105.672 137.091 104.562Z" fill="#04D361" stroke="#04D361"/>
<path d="M146.839 107.967H139.748C138.307 107.967 137.215 106.662 137.476 105.243L140.813 87.0384C141.011 85.9427 141.967 85.1496 143.084 85.1496H150.175C151.616 85.1496 152.707 86.4541 152.446 87.8733L149.11 106.078C148.911 107.174 147.956 107.967 146.839 107.967Z" fill="white"/>
<path d="M142.941 91.5683H141.793L142.586 87.241H143.734L142.941 91.5683Z" fill="#04D361" stroke="#04D361"/>
<path d="M126.908 98.1213C126.908 98.1213 130.365 98.0065 133.012 97.1977C134.15 96.8481 136.406 96.4412 137.153 95.3611C137.905 94.2706 137.837 91.9174 138.589 91.8182C139.168 91.74 140.327 93.5818 140.03 94.8237C139.737 96.0394 139.596 96.7125 139.153 97.2551C139.006 97.4378 143.878 97.7821 146.964 97.1038C149.079 96.6394 148.452 98.7318 147.016 99.3892C147.016 99.3892 147.528 100.668 146.029 101.101C146.029 101.101 146.045 102.807 144.614 102.885C144.452 103.282 144.176 104.127 142.938 104.43C141.137 104.873 138.416 105.04 135.675 104.795C134.281 104.67 127.848 105.797 127.848 105.797L126.908 98.1213Z" fill="#FFCAD0"/>
<path d="M96.3782 109.297C101.312 110.158 130.725 106.84 130.725 106.84L129.994 96.5555C129.994 96.5555 106.027 97.672 102.832 97.3851C92.2637 96.4511 90.2377 108.228 96.3782 109.297Z" fill="#04D361"/>
<path d="M132.814 21.3894C133.32 20.8832 133.884 20.3458 134.594 20.2675C135.304 20.1893 136.114 20.8519 135.879 21.5302C138.296 20.4815 140.824 19.6988 143.408 19.1979C144.056 19.0727 144.755 18.9683 145.356 19.2553C145.951 19.5423 146.322 20.3719 145.915 20.8885C147.168 21.3581 148.557 21.0502 149.888 20.8937C151.22 20.7371 152.739 20.805 153.642 21.7911C154.483 22.7042 154.499 24.0817 154.473 25.3235C154.431 27.0245 154.389 28.7359 154.003 30.3952C153.428 32.8475 152.092 35.112 150.217 36.7974C150.776 34.8877 149.778 32.7693 148.207 31.5431C146.64 30.3117 144.62 29.8265 142.641 29.6021C140.27 29.3308 137.858 29.3934 135.498 29.7795C133.717 30.0717 131.174 31.3396 129.404 30.5361C125.483 28.762 131.3 22.9025 132.814 21.3894Z" fill="#8F4A3F"/>
</g>
<path d="M193.43 43.3763H168.879C166.999 43.3763 165.474 41.8527 165.474 39.9743V29.6849C165.474 27.8065 166.999 26.283 168.879 26.283H193.43C195.31 26.283 196.835 27.8065 196.835 29.6849V39.9743C196.835 41.8527 195.31 43.3763 193.43 43.3763Z" fill="#04D361"/>
<path d="M170.727 42.2697V46.9552L175.75 41.9358L170.727 42.2697Z" fill="#04D361"/>
<path d="M172.685 36.786C173.767 36.786 174.643 35.91 174.643 34.8293C174.643 33.7487 173.767 32.8727 172.685 32.8727C171.604 32.8727 170.727 33.7487 170.727 34.8293C170.727 35.91 171.604 36.786 172.685 36.786Z" fill="#E6E6F0"/>
<path d="M181.154 36.7861C182.236 36.7861 183.112 35.9101 183.112 34.8295C183.112 33.7489 182.236 32.8728 181.154 32.8728C180.073 32.8728 179.196 33.7489 179.196 34.8295C179.196 35.9101 180.073 36.7861 181.154 36.7861Z" fill="#E6E6F0"/>
<path d="M189.624 36.7861C190.705 36.7861 191.582 35.9101 191.582 34.8295C191.582 33.7489 190.705 32.8728 189.624 32.8728C188.542 32.8728 187.666 33.7489 187.666 34.8295C187.666 35.9101 188.542 36.7861 189.624 36.7861Z" fill="#E6E6F0"/>
<path d="M260.965 182.646L259.853 196.165H265.622L268.619 182.646H260.965Z" fill="#FEC9CF"/>
<path d="M266.249 193.337C266.249 193.337 268.755 197.381 266.876 198.101C264.996 198.821 252.621 198.884 249.566 198.43C246.512 197.971 256.38 193.791 258.636 193.134C260.897 192.476 261.623 195.905 266.249 193.337Z" fill="#6842C2"/>
<path d="M291.302 182.647L292.409 196.166H286.639L283.647 182.647H291.302Z" fill="#FEC9CF"/>
<path d="M286.012 193.338C286.012 193.338 283.506 197.382 285.386 198.102C287.266 198.822 299.64 198.884 302.695 198.43C305.75 197.971 295.881 193.792 293.625 193.134C291.37 192.477 290.639 195.905 286.012 193.338Z" fill="#6842C2"/>
<path d="M259.806 108.727L257.19 189.784H269.371L271.998 135.796L282.436 191.334L295.703 189.127C295.703 189.127 283.725 128.544 281.689 108.732H259.806V108.727Z" fill="#D8D8E3"/>
<path d="M271.484 135.965L271.466 135.593L271.495 135.807L271.484 135.965Z" fill="#194248" stroke="#C9C9D4"/>
<path d="M277.773 108.727L291.871 189.581" stroke="#C9C9D4" stroke-miterlimit="10" stroke-linecap="round" stroke-linejoin="round"/>
<path d="M274.838 48.9784C277.439 48.9836 280.201 50.3455 281.078 52.7926C281.757 54.6762 281.245 56.899 282.195 58.6626C282.895 59.967 284.294 60.8071 284.926 62.1428C286.232 64.9186 283.689 68.2163 284.498 71.1695C285.245 73.9036 288.634 75.4689 288.915 78.2917C289.098 80.0918 287.829 81.8189 286.195 82.6016C284.566 83.3895 282.655 83.3842 280.869 83.0868C276.488 82.3511 272.363 79.951 267.925 80.1805C266.098 80.2745 264.186 80.8067 262.495 80.1023C261.289 79.6014 260.417 78.5422 259.649 77.4882C258.767 76.2777 257.921 74.9002 258.004 73.4079C258.124 71.2164 260.114 69.6824 261.304 67.8406C262.521 65.957 263.033 63.6038 262.693 61.3862C261.08 50.8464 267.011 51.1699 267.768 51.1542C268.463 51.1386 270.771 49.7246 271.685 49.4585C272.718 49.161 273.773 48.9784 274.838 48.9784Z" fill="#D38D00"/>
<path d="M246.971 93.1992C244.46 91.2008 234.246 84.449 234.147 83.5046C233.959 81.7306 233.338 80.327 229.531 79.1165C229.531 79.1165 229.229 79.68 229.756 80.3009C230.325 80.974 230.785 81.2088 230.785 81.2088C230.785 81.2088 229.772 81.5845 228.278 80.3948C226.785 79.2052 226.164 78.1773 225.527 78.4225C225.527 78.4225 224.785 77.739 224.43 77.8434C224.43 77.8434 224.169 77.9164 224.216 78.1982C223.626 78.099 223.73 79.7948 224.759 81.1879C226.242 83.1863 228.858 84.7099 230.393 85.2891C231.542 85.7222 239.076 96.8568 244.125 98.0621C245.577 98.3961 248.141 94.128 246.971 93.1992Z" fill="#FCDDC6"/>
<path d="M254.871 83.322C254.871 83.322 243.583 91.1904 242.491 93.147C241.4 95.1037 242.214 100.327 247.243 96.9716C252.271 93.6166 260.208 87.5275 260.208 87.5275L254.871 83.322Z" fill="#FCDDC6"/>
<path d="M260.672 76.1584C260.672 76.1584 257.571 76.9411 255.503 79.3987C253.77 81.4597 250.976 84.7782 250.976 84.7782L259.539 91.4256C259.545 91.4203 261.633 79.3361 260.672 76.1584Z" fill="#47248F"/>
<path d="M281.689 108.727H259.8C259.8 108.727 259.889 104.975 258.673 99.147C257.451 93.324 258.062 90.2768 259.278 87.2349C260.5 84.1929 258.323 77.1594 260.672 76.1576C261.628 75.7506 263.288 75.0932 264.918 74.4618C265.33 74.3053 265.737 74.1436 266.129 73.9922C268.019 73.2618 269.612 72.6565 269.612 72.6565H273.554C273.554 72.6565 276.269 73.5539 279.057 74.6653C279.423 74.8114 279.794 74.9627 280.159 75.1141C280.159 75.1193 280.159 75.1193 280.159 75.1193C281.564 75.7089 282.906 76.3298 283.819 76.8985C286.78 78.7247 281.689 108.727 281.689 108.727Z" fill="#6842C2"/>
<path d="M268.285 62.9773L268.703 71.0752L268.823 73.3867C268.875 74.3676 269.303 75.2442 269.972 75.8756C270.635 76.5069 271.533 76.8878 272.515 76.8878C274.593 76.8878 276.264 75.1764 276.212 73.1049L276.107 68.9829L275.93 62.132L268.285 62.9773Z" fill="#FFDFC8"/>
<path d="M268.285 62.9773L268.703 70.6056C272.29 70.7517 274.911 69.2908 276.112 67.3498L275.935 62.132L268.285 62.9773Z" fill="#DA9F74"/>
<path d="M265.434 56.7061C265.434 56.7061 265.168 59.3463 265.539 62.263C265.967 65.6389 266.343 69.5052 270.797 69.8705C276.102 70.3035 277.872 64.2092 277.872 64.2092C277.872 64.2092 280.336 63.6353 280.639 61.9551C280.942 60.2698 279.104 59.7637 278.462 60.2959C278.462 60.2959 277.731 53.1893 271.162 53.1893C265.356 53.1893 265.434 56.7061 265.434 56.7061Z" fill="#FFDFC8"/>
<path d="M280.159 75.1141C280.159 75.1193 280.159 75.1193 280.159 75.1141C275.669 80.5823 270.374 80.3266 270.374 80.3266C266.197 79.4135 264.917 74.4618 264.917 74.4618C265.33 74.3053 265.737 74.1436 266.129 73.9922C268.019 73.2618 269.612 72.6565 269.612 72.6565H273.554C273.554 72.6565 276.269 73.5539 279.057 74.6653C279.423 74.8114 279.794 74.9627 280.159 75.1141Z" fill="#04D361"/>
<path d="M279.057 74.6653C274.478 79.6378 270.51 79.1161 270.51 79.1161C266.244 77.4829 266.129 73.9922 266.129 73.9922C268.019 73.2618 269.612 72.6565 269.612 72.6565H273.554C273.554 72.6565 276.269 73.5539 279.057 74.6653Z" fill="#FCDDC6"/>
<path d="M267.721 51.6549C267.721 51.6549 268.332 56.7944 265.027 58.4902C265.027 58.4902 263.372 52.2654 267.721 51.6549Z" fill="#D38D00"/>
<path d="M266.719 52.1461C266.719 52.1461 267.894 56.6229 270.807 56.8838C273.721 57.1447 273.204 59.5031 275.783 59.7744C277.318 59.9362 278.002 61.5328 278.002 61.5328C278.002 61.5328 278.227 59.9466 279.616 59.3831C281.015 58.8196 276.332 46.9701 266.719 52.1461Z" fill="#D38D00"/>
<path d="M271.664 62.9208C271.664 63.2025 271.888 63.4268 272.17 63.4268C272.452 63.4268 272.676 63.2025 272.676 62.9208C272.676 62.6391 272.452 62.4147 272.17 62.4147C271.893 62.4147 271.664 62.6443 271.664 62.9208Z" fill="#60423D"/>
<path d="M267.08 62.9203C267.08 63.202 267.304 63.4263 267.586 63.4263C267.868 63.4263 268.092 63.202 268.092 62.9203C268.092 62.6386 267.863 62.4142 267.586 62.4142C267.304 62.4142 267.08 62.6438 267.08 62.9203Z" fill="#60423D"/>
<path d="M274.018 61.1567C274.018 61.1567 273.266 59.9203 271.664 60.3638" stroke="#561E15" stroke-miterlimit="10" stroke-linecap="round" stroke-linejoin="round"/>
<path d="M268.906 60.348C268.906 60.348 267.747 59.2942 266.615 60.4471" stroke="#561E15" stroke-miterlimit="10" stroke-linecap="round" stroke-linejoin="round"/>
<path d="M269.919 61.6049C269.919 61.6049 269.371 63.0033 268.906 63.8746C268.442 64.746 269.82 65.1321 269.82 65.1321" stroke="#DA9F74" stroke-width="0.75" stroke-miterlimit="10" stroke-linecap="round" stroke-linejoin="round"/>
<path d="M272.958 66.1238C272.958 66.1238 272.065 67.4228 270.51 67.0524" stroke="#DA9F74" stroke-width="0.75" stroke-miterlimit="10" stroke-linecap="round" stroke-linejoin="round"/>
<path d="M278.446 62.5654C278.446 62.5654 278.462 60.9899 279.637 61.4229" stroke="#DA9F74" stroke-width="0.75" stroke-miterlimit="10" stroke-linecap="round" stroke-linejoin="round"/>
<path d="M260.25 103.519H240.199C239.802 103.519 239.479 103.196 239.479 102.799C239.479 102.403 239.802 102.079 240.199 102.079H260.25C260.646 102.079 260.97 102.403 260.97 102.799C260.965 103.201 260.646 103.519 260.25 103.519Z" fill="#04D361"/>
<path d="M238.152 86.4467L238.152 86.4467L238.151 86.445C238.064 86.0999 238.33 85.7576 238.69 85.7576H256.751C257.009 85.7576 257.229 85.9318 257.289 86.1747L257.289 86.1763L261.114 101.585H241.911L238.152 86.4467Z" fill="#04D361" stroke="#04D361"/>
<path d="M260.364 102.085H240.131L236.278 86.5675C236.111 85.9048 236.617 85.2578 237.301 85.2578H255.362C255.848 85.2578 256.271 85.5866 256.386 86.0562L260.364 102.085Z" fill="white"/>
<path d="M275.768 103.52H260.594C260.223 103.52 259.921 103.217 259.921 102.846V102.758C259.921 102.387 260.223 102.085 260.594 102.085H275.768C276.138 102.085 276.441 102.387 276.441 102.758V102.846C276.447 103.222 276.144 103.52 275.768 103.52Z" fill="#04D361"/>
<path d="M248.593 92.8666L248.593 92.8675C248.908 93.6818 248.586 94.3316 248.195 94.4857C247.808 94.6331 247.132 94.3688 246.816 93.5508C246.5 92.7329 246.827 92.0816 247.213 91.9331C247.601 91.7841 248.278 92.045 248.593 92.8666Z" fill="#04D361" stroke="#04D361"/>
<path d="M282.796 102.084L281.48 85.0432L284.007 92.2176L282.796 102.084Z" fill="#47248F"/>
<path d="M282.968 86.7763C282.968 86.7763 286.091 103.546 286.863 106.291C287.365 108.065 291.009 109.275 292.153 106.927C292.403 106.411 292.346 105.55 292.32 104.673C292.142 99.2519 288.346 85.4562 288.346 85.4562L282.968 86.7763Z" fill="#FCDDC6"/>
<path d="M283.824 76.8986C283.824 76.8986 285.689 77.8534 287.255 80.551C288.821 83.2486 290.983 88.0071 290.847 89.1603C290.033 91.3778 283.6 93.6736 283.6 93.6736C283.6 93.6736 279.303 79.5596 283.824 76.8986Z" fill="#6842C2"/>
<path d="M287.432 103.05C287.432 103.05 277.517 102.831 275.637 101.714C273.089 100.196 272.499 100.853 271.021 100.488C268.651 99.8982 268.912 100.378 268.912 100.378C268.912 100.378 269.022 101.75 270.854 101.923C271.778 102.011 273.162 102.403 272.87 102.627C272.87 102.627 265.518 103.394 264.04 103.525C262.563 103.655 263.283 104.792 264.411 105.053C264.411 105.053 265.085 105.904 266.176 105.643C266.176 105.643 265.936 106.123 268.766 106.123C271.596 106.123 274.436 104.62 275.872 105.272C277.308 105.925 285.062 108.925 289.981 108.231C292.33 107.897 292.346 106.77 292.346 105.58C292.346 103.519 290.821 103.258 287.432 103.05Z" fill="#FCDDC6"/>
<path d="M81.7161 182.646L78.4422 196.166H72.6725L74.0614 182.646H81.7161Z" fill="#A67A62"/>
<path d="M72.0461 193.338C72.0461 193.338 69.5398 197.381 71.4195 198.102C73.2993 198.822 85.6742 198.884 88.7288 198.43C91.7833 197.971 81.9147 193.792 79.659 193.134C77.4034 192.477 76.6724 195.905 72.0461 193.338Z" fill="#6842C2"/>
<path d="M63.5451 182.646L61.5661 196.166H55.7964L55.8904 182.646H63.5451Z" fill="#A67A62"/>
<path d="M55.1703 193.338C55.1703 193.338 52.6639 197.381 54.5437 198.102C56.4234 198.822 68.7983 198.884 71.8529 198.43C74.9075 197.971 65.0389 193.792 62.7832 193.134C60.5275 192.477 59.7965 195.905 55.1703 193.338Z" fill="#6842C2"/>
<path d="M53.8492 117.263L54.2774 189.404H63.4359L69.9053 136.402L77.2781 157.91L71.759 189.409H81.7216C81.7216 189.409 90.478 162.188 90.1229 156.845C89.7679 151.497 79.6591 115.067 79.6591 115.067L53.8492 117.263Z" fill="#D8D8E3"/>
<path d="M71.2186 138.709L70.4084 136.343L70.7861 132.514L71.2186 138.709Z" fill="#C9C9D4" stroke="#C9C9D4"/>
<path d="M59.0191 116.393L58.4912 189.41" stroke="#C9C9D4" stroke-miterlimit="10"/>
<path d="M87.0631 84.2244C87.0631 84.2244 92.979 95.4061 93.1096 98.8393C93.2401 102.273 89.4545 101.506 87.4965 98.4115C85.5384 95.3121 82.4055 86.5255 82.4055 86.5255L87.0631 84.2244Z" fill="#A67A62"/>
<path d="M88.17 85.1588C88.17 85.1588 86.473 88.1747 82.4055 90.0165C81.5648 90.3974 80.8547 89.3904 80.3273 88.1955C79.7164 86.8024 79.3614 85.1588 79.3614 85.1588C79.3614 85.1588 74.6986 70.7422 78.8079 71.2587C78.8079 71.2587 82.3063 71.504 84.8752 76.5652C85.5488 77.8853 86.5983 80.5463 87.4755 83.0717C87.7262 83.7918 87.9611 84.4961 88.17 85.1588Z" fill="#47248F"/>
<path d="M88.1701 85.1585C88.1701 85.1585 86.4731 88.1743 82.4055 90.0162C81.5649 90.3971 80.8548 89.3901 80.3274 88.1952C81.9199 87.4804 84.9327 85.8733 87.4756 83.0714C87.7262 83.7914 87.9612 84.4958 88.1701 85.1585Z" fill="#04D361"/>
<path d="M79.8679 115.854C77.2832 118.786 60.2664 118.353 53.844 117.263C52.7161 117.07 51.6039 116.637 53.3845 112.713C54.0528 111.247 53.7656 107.474 53.6508 102.288C53.4262 92.035 50.3821 75.0251 54.1364 73.0737C56.3868 71.8997 61.1645 70.3552 64.6368 69.3012C64.8456 69.2439 65.0493 69.1812 65.2477 69.1186C67.2736 68.5134 68.72 68.1116 68.72 68.1116C68.72 68.1116 70.3961 68.3568 73.8057 69.3639C73.9885 69.416 74.1869 69.4787 74.3853 69.536C75.2729 69.8074 76.2598 70.1204 77.3615 70.4961C79.4971 71.2214 81.0636 71.6649 81.4447 72.3745C82.4629 74.2372 82.0713 77.5401 82.134 82.2987C82.2175 88.273 82.1549 113.266 79.8679 115.854Z" fill="#6842C2"/>
<path d="M52.8519 90.6787L56.5226 81.7355L53.8492 104.741L52.8519 90.6787Z" fill="#47248F"/>
<path d="M74.3853 69.5416C74.307 70.8043 73.7378 71.9157 72.8815 72.7296C72.0043 73.5645 70.819 74.0706 69.5293 74.0706C66.8611 74.0706 64.6994 71.9366 64.6472 69.2964C64.8561 69.239 65.0597 69.1764 65.2581 69.1138C67.2841 68.5085 68.7304 68.1067 68.7304 68.1067C68.7304 68.1067 70.4065 68.352 73.8162 69.359C73.9937 69.4268 74.1869 69.4842 74.3853 69.5416Z" fill="#04D361"/>
<path d="M76.6105 49.8571C76.6105 49.8571 74.6771 48.0106 71.7515 47.5713C67.4721 46.9288 61.8378 48.3201 60.7155 54.8483C59.8278 58.6103 64.4175 64.7933 66.151 64.4333C66.151 64.4333 81.7554 54.5626 76.6105 49.8571Z" fill="#43302D"/>
<path d="M73.8004 58.9033L73.3827 67.0013L73.2626 69.3128C73.2156 70.2937 72.7823 71.1703 72.1139 71.8016C71.4508 72.433 70.5527 72.8139 69.571 72.8139C67.4929 72.8139 65.822 71.1024 65.8742 69.031L65.9787 64.909L66.1562 58.0581L73.8004 58.9033Z" fill="#A67A62"/>
<path d="M73.8005 60.5157L73.3828 68.144C69.7956 68.2901 67.1745 66.8292 65.9735 64.8882L66.151 59.6704L73.8005 60.5157Z" fill="#765441"/>
<path d="M76.6462 54.2433C76.6462 54.2433 76.9125 56.8834 76.5418 59.8002C76.1136 63.176 76.265 67.1415 71.2837 67.4076C65.9683 67.6894 64.2086 61.7464 64.2086 61.7464C64.2086 61.7464 61.3838 61.2194 61.1906 59.3149C60.9974 57.4104 62.9711 57.3009 63.6134 57.8331C63.6134 57.8331 64.3444 50.7265 70.913 50.7265C76.7245 50.7317 76.6462 54.2433 76.6462 54.2433Z" fill="#A67A62"/>
<path d="M70.5682 59.3452C70.5682 59.6373 70.3333 59.8721 70.0409 59.8721C69.7486 59.8721 69.5137 59.6373 69.5137 59.3452C69.5137 59.053 69.7486 58.8183 70.0409 58.8183C70.3281 58.8183 70.5682 59.053 70.5682 59.3452Z" fill="#60423D"/>
<path d="M75.6488 59.0742C75.6488 59.3664 75.4139 59.6011 75.1215 59.6011C74.8292 59.6011 74.5942 59.3664 74.5942 59.0742C74.5942 58.7821 74.8292 58.5473 75.1215 58.5473C75.4139 58.5473 75.6488 58.7821 75.6488 59.0742Z" fill="#60423D"/>
<path d="M67.9629 57.8386C67.9629 57.8386 68.7408 56.5553 70.4061 57.0196" stroke="#43302D" stroke-miterlimit="10" stroke-linecap="round" stroke-linejoin="round"/>
<path d="M73.2679 56.9979C73.2679 56.9979 74.4687 55.9024 75.6485 57.1023" stroke="#43302D" stroke-miterlimit="10" stroke-linecap="round" stroke-linejoin="round"/>
<path d="M72.2184 58.3018C72.2184 58.3018 72.7875 59.7523 73.2731 60.6602C73.7587 61.5628 72.3228 61.9646 72.3228 61.9646" stroke="#765441" stroke-width="0.75" stroke-miterlimit="10" stroke-linecap="round" stroke-linejoin="round"/>
<path d="M70.3074 63.5881C70.3074 63.5881 71.482 64.7253 72.9908 64.0315" stroke="#765441" stroke-width="0.75" stroke-miterlimit="10" stroke-linecap="round" stroke-linejoin="round"/>
<path d="M63.5296 59.9296C63.5296 59.9296 63.514 58.2967 62.2924 58.7401" stroke="#765441" stroke-width="0.75" stroke-miterlimit="10" stroke-linecap="round" stroke-linejoin="round"/>
<path d="M65.1433 52.3335C65.1433 52.3335 68.13 55.3754 66.4957 56.539C64.6786 57.833 64.3914 59.6696 64.3914 59.6696C64.3914 59.6696 64.428 59.0226 63.6186 57.8382C62.8093 56.6538 61.0444 52.4483 65.1433 52.3335Z" fill="#43302D"/>
<path d="M48.7896 84.8242C48.7896 84.8242 42.8737 96.0059 42.7432 99.4391C42.6126 102.872 46.3982 102.105 48.3563 99.0113C50.3143 95.912 53.4472 87.1253 53.4472 87.1253L48.7896 84.8242Z" fill="#A67A62"/>
<path d="M90.974 95.0575C90.974 95.0575 82.1549 88.5353 81.6536 88.1648C80.8025 87.5283 79.5598 86.6047 79.1108 86.2916C78.4006 85.796 74.2495 85.0759 73.67 85.1698C73.0956 85.2638 71.503 85.5351 71.0383 85.7073C70.5736 85.8795 71.1584 86.4743 71.6179 86.756C72.0774 87.0378 74.1138 88.0918 75.8421 88.4101C76.8029 88.5875 77.6278 89.0727 78.3014 89.558C78.8392 89.9441 88.1439 99.4247 88.4938 99.6543L90.974 95.0575Z" fill="#A67A62"/>
<path d="M80.0558 87.0535C80.0558 87.0535 76.7349 83.949 76.2389 83.9959C75.7481 84.0429 76.0979 84.7421 77.4033 85.8013C77.8471 86.1613 78.3223 86.73 78.7191 86.9179C79.4971 87.2831 80.0558 87.0535 80.0558 87.0535Z" fill="#A67A62"/>
<path d="M77.3573 98.0243L77.3573 98.0243C77.5622 98.001 77.7333 97.8529 77.7862 97.6492L77.7863 97.649L80.6789 86.5355L77.3573 98.0243ZM77.3573 98.0243L77.3546 98.0246M77.3573 98.0243L77.3546 98.0246M77.3546 98.0246L65.2464 99.4699L77.3546 98.0246ZM67.5853 87.7261L67.5853 87.7263L64.6926 98.8399C64.6926 98.8399 64.6926 98.84 64.6925 98.8401C64.6041 99.1813 64.8893 99.5119 65.2459 99.47L67.5853 87.7261ZM67.5853 87.7261C67.6382 87.5225 67.8093 87.3744 68.0143 87.351L68.0143 87.351M67.5853 87.7261L68.0143 87.351M68.0143 87.351L68.017 87.3507M68.0143 87.351L68.017 87.3507M68.017 87.3507L80.1251 85.9054M68.017 87.3507L80.1251 85.9054M80.1251 85.9054C80.1252 85.9054 80.1253 85.9054 80.1253 85.9054M80.1251 85.9054L80.1253 85.9054M80.1253 85.9054C80.4821 85.8633 80.7674 86.194 80.679 86.5352L80.1253 85.9054Z" fill="#04D361" stroke="#04D361"/>
<path d="M77.952 98.8926L65.8434 100.338C65.1385 100.421 64.5693 99.7692 64.7469 99.0857L67.6396 87.9719C67.744 87.5701 68.0834 87.2727 68.4959 87.2257L80.6045 85.7804C81.3094 85.6969 81.8786 86.3491 81.7011 87.0327L78.8083 98.1465C78.7039 98.543 78.3645 98.8404 77.952 98.8926Z" fill="white"/>
<path d="M68.4595 90.0342L68.2564 90.0577L68.7297 88.2441L68.9328 88.2206L68.4595 90.0342ZM67.9992 90.0875C67.9992 90.0875 67.9993 90.0875 67.9994 90.0875L67.9993 90.0875L67.9992 90.0875Z" fill="#04D361" stroke="#04D361"/>
<path d="M45.0039 96.1316C48.7007 96.2777 60.2559 96.0377 61.7858 95.516C62.4437 95.2916 64.0624 94.9524 64.4749 94.3106C64.8926 93.6584 65.2476 92.6671 65.681 92.594C66.0152 92.5366 65.9369 93.6115 65.8377 94.0028C65.6497 94.7072 65.5244 95.0724 65.2737 95.3959C65.1902 95.5055 68.0359 95.9125 69.8216 95.4586C71.0487 95.1455 70.819 96.1264 69.994 96.5386C69.994 96.5386 70.3229 97.3943 69.4561 97.6761C69.4561 97.6761 69.6076 98.6257 68.7721 98.6988C68.6834 98.9336 68.4223 99.3562 67.7017 99.5597C66.6574 99.8519 64.8456 99.8467 63.4671 99.9041C62.6525 99.9354 46.9098 102.393 44.1267 101.694C42.9675 101.402 43.803 96.0847 45.0039 96.1316Z" fill="#A67A62"/>
<path d="M55.6141 86.3271C55.6141 86.3271 55.3425 87.355 54.9405 88.4142C54.4914 89.583 53.8805 90.7831 53.2801 90.6735C53.2801 90.6735 45.1136 88.0959 45.3852 87.2611C45.5888 86.6402 45.9386 85.8314 46.372 84.934C47.7244 82.1268 49.8704 78.464 50.7372 77.0447C53.6925 72.1974 54.9039 72.8131 54.9039 72.8131C59.0446 72.6149 55.6141 86.3271 55.6141 86.3271Z" fill="#6842C2"/>
<path d="M54.9405 88.4147C54.4914 89.5834 53.8805 90.7835 53.2801 90.6739C53.2801 90.6739 45.1136 88.0964 45.3852 87.2615C45.5888 86.6406 45.9386 85.8319 46.372 84.9344C47.8758 85.644 51.9329 87.5068 54.9405 88.4147Z" fill="#04D361"/>
<path d="M57.5304 111.262C57.5304 111.262 71.1063 109.087 78.4163 104.74C78.4163 104.74 70.2395 112.916 57.5304 111.262Z" fill="#47248F"/>
<path d="M226.842 162.965H191.54C189.801 162.965 188.397 161.556 188.397 159.824V142.777C188.397 141.04 189.806 139.636 191.54 139.636H226.842C228.581 139.636 229.986 141.045 229.986 142.777V159.819C229.991 161.556 228.581 162.965 226.842 162.965Z" fill="#6842C2"/>
<path d="M192.14 156.938C195.43 156.938 195.43 153.025 198.719 153.025C202.009 153.025 202.009 147.807 205.298 147.807C208.588 147.807 208.588 149.806 211.877 149.806C215.167 149.806 215.167 144.979 218.456 144.979C221.746 144.979 221.746 152.55 225.035 152.55" stroke="white" stroke-miterlimit="10" stroke-linecap="round" stroke-linejoin="round"/>
<path d="M193.101 156.938C193.101 156.411 192.673 155.983 192.145 155.983C191.618 155.983 191.19 156.411 191.19 156.938C191.19 157.465 191.618 157.893 192.145 157.893C192.673 157.893 193.101 157.465 193.101 156.938Z" fill="white"/>
<path d="M225.996 152.555C225.996 152.028 225.568 151.6 225.041 151.6C224.513 151.6 224.085 152.028 224.085 152.555C224.085 153.082 224.513 153.51 225.041 153.51C225.568 153.51 225.996 153.082 225.996 152.555Z" fill="white"/>
<path d="M22.6874 39.8841H57.9481C60.3082 39.8841 62.2245 37.9692 62.2245 35.6107V24.857C62.2245 22.4985 60.3082 20.5836 57.9481 20.5836H22.6874C20.3273 20.5836 18.411 22.4985 18.411 24.857V35.6107C18.411 37.9744 20.3273 39.8841 22.6874 39.8841Z" fill="#6842C2"/>
<path d="M56.9716 38.7778V43.4634L51.9434 38.4439L56.9716 38.7778Z" fill="#6842C2"/>
<path d="M22.4629 25.3214H32.2375" stroke="white" stroke-miterlimit="10" stroke-linecap="round" stroke-linejoin="round"/>
<path d="M35.7202 25.3215H58.1726" stroke="white" stroke-miterlimit="10" stroke-linecap="round" stroke-linejoin="round"/>
<path d="M22.4629 30.2378H40.6859" stroke="white" stroke-miterlimit="10" stroke-linecap="round" stroke-linejoin="round"/>
<path d="M43.4742 30.237H48.868" stroke="white" stroke-miterlimit="10" stroke-linecap="round" stroke-linejoin="round"/>
<path d="M51.7607 30.237H58.1727" stroke="white" stroke-miterlimit="10" stroke-linecap="round" stroke-linejoin="round"/>
<path d="M22.4629 35.1465H26.5879" stroke="white" stroke-miterlimit="10" stroke-linecap="round" stroke-linejoin="round"/>
<path d="M29.115 35.1461H43.9962" stroke="white" stroke-miterlimit="10" stroke-linecap="round" stroke-linejoin="round"/>
<path d="M242.157 22.4578H233.108C231.427 22.4578 230.064 21.0959 230.064 19.4158V10.3735C230.064 8.69335 231.427 7.33151 233.108 7.33151H242.157C243.838 7.33151 245.201 8.69335 245.201 10.3735V19.4158C245.201 21.0959 243.838 22.4578 242.157 22.4578Z" fill="#6842C2"/>
<path d="M242.783 14.1142L242.559 13.1228C242.517 12.9297 242.319 12.8097 242.125 12.8515L241.541 12.9871C241.389 13.0237 241.238 12.9506 241.154 12.8202C240.924 12.4601 240.642 12.1366 240.319 11.8653C240.188 11.7557 240.146 11.5783 240.219 11.427L240.512 10.827C240.601 10.6496 240.522 10.4304 240.345 10.347L239.426 9.90344C239.248 9.81474 239.029 9.89301 238.945 10.0704L238.632 10.7226C238.564 10.8687 238.402 10.9418 238.246 10.9209C238.053 10.8948 237.849 10.8792 237.651 10.8792C237.447 10.8792 237.248 10.8948 237.055 10.9209C236.893 10.9418 236.737 10.8687 236.669 10.7226L236.356 10.0704C236.267 9.89301 236.053 9.81474 235.875 9.90344L234.956 10.347C234.779 10.4357 234.7 10.6496 234.789 10.827L235.082 11.427C235.155 11.5783 235.108 11.7557 234.982 11.8653C234.659 12.1419 234.371 12.4601 234.147 12.8202C234.063 12.9506 233.912 13.0237 233.761 12.9871L233.176 12.8515C232.983 12.8097 232.789 12.9297 232.742 13.1228L232.518 14.1142C232.476 14.3072 232.596 14.5003 232.789 14.5472L233.531 14.7142C233.526 14.8186 233.515 14.9177 233.515 15.0221C233.515 15.5177 233.604 15.9978 233.766 16.4361C233.818 16.5822 233.781 16.7491 233.656 16.8483L233.369 17.0778C233.212 17.2031 233.186 17.4274 233.311 17.584L233.917 18.3823C234.042 18.5388 234.267 18.5649 234.424 18.4397L234.622 18.2779C234.758 18.1736 234.946 18.1788 235.076 18.2831C235.494 18.6066 235.969 18.8571 236.491 19.0084C236.648 19.0554 236.763 19.191 236.763 19.358V19.5667C236.763 19.765 236.925 19.9267 237.123 19.9267H238.141C238.34 19.9267 238.502 19.765 238.502 19.5667V19.358C238.502 19.191 238.616 19.0554 238.773 19.0084C239.295 18.8571 239.77 18.6119 240.188 18.2831C240.324 18.1788 240.512 18.1684 240.642 18.2779L240.841 18.4397C240.997 18.5649 241.222 18.5388 241.347 18.3823L241.984 17.5892C242.11 17.4327 242.084 17.2083 241.927 17.0831L241.64 16.8535C241.514 16.7543 241.478 16.5874 241.53 16.4413C241.692 15.9978 241.781 15.523 241.781 15.0273C241.781 14.9229 241.77 14.8238 241.765 14.7194L242.507 14.5525C242.705 14.5003 242.825 14.3072 242.783 14.1142ZM237.635 17.5996C236.209 17.5996 235.055 16.4465 235.055 15.0221C235.055 13.5976 236.209 12.4445 237.635 12.4445C239.06 12.4445 240.214 13.5976 240.214 15.0221C240.214 16.4465 239.06 17.5996 237.635 17.5996Z" fill="white"/>
<path d="M322.467 82.3423C323.394 76.6392 319.519 71.2663 313.811 70.3415C308.104 69.4167 302.725 73.2903 301.798 78.9934C300.871 84.6965 304.746 90.0695 310.454 90.9943C316.161 91.919 321.54 88.0454 322.467 82.3423Z" fill="#6842C2"/>
<path d="M317.863 82.0411C318.61 78.8806 316.652 75.7141 313.489 74.9685C310.326 74.2228 307.156 76.1804 306.408 79.3408C305.661 82.5013 307.619 85.6678 310.782 86.4135C313.945 87.1592 317.115 85.2016 317.863 82.0411Z" fill="#6842C2" stroke="white" stroke-miterlimit="10" stroke-linecap="round" stroke-linejoin="round"/>
<path d="M312.125 76.8257V80.6712L310.094 82.7009" fill="#6842C2"/>
<path d="M312.125 76.8257V80.6712L310.094 82.7009" stroke="white" stroke-miterlimit="10" stroke-linecap="round" stroke-linejoin="round"/>
<path d="M312.125 74.7909V75.3543" stroke="white" stroke-miterlimit="10" stroke-linecap="round" stroke-linejoin="round"/>
<path d="M312.125 85.9938V86.552" stroke="white" stroke-miterlimit="10" stroke-linecap="round" stroke-linejoin="round"/>
<path d="M318.01 80.6714H317.446" stroke="white" stroke-miterlimit="10" stroke-linecap="round" stroke-linejoin="round"/>
<path d="M306.805 80.6716H306.24" stroke="white" stroke-miterlimit="10" stroke-linecap="round" stroke-linejoin="round"/>
</svg>
