<svg width="259" height="206" viewBox="0 0 259 206" fill="none" xmlns="http://www.w3.org/2000/svg">
<path d="M239.631 197.361L233.972 202.966" stroke="#24EF7F" stroke-width="3" stroke-miterlimit="10" stroke-linecap="round" stroke-linejoin="round"/>
<path d="M239.631 202.966L233.972 197.361" stroke="#24EF7F" stroke-width="2" stroke-miterlimit="10" stroke-linecap="round" stroke-linejoin="round"/>
<path d="M9.00214 119.208L1.00017 119.208" stroke="#24EF7F" stroke-width="2" stroke-miterlimit="10" stroke-linecap="round" stroke-linejoin="round"/>
<path d="M5.00207 123.181L5.00208 115.247" stroke="#24EF7F" stroke-width="2" stroke-miterlimit="10" stroke-linecap="round" stroke-linejoin="round"/>
<path d="M171.002 21.9622L163 21.9622" stroke="#24EF7F" stroke-width="2" stroke-miterlimit="10" stroke-linecap="round" stroke-linejoin="round"/>
<path d="M167.002 25.9347L167.002 18" stroke="#24EF7F" stroke-width="2" stroke-miterlimit="10" stroke-linecap="round" stroke-linejoin="round"/>
<path d="M243.863 10.633C241.183 10.633 239 8.47997 239 5.81651C239 3.16233 241.174 1 243.863 1C246.543 1 248.726 3.15305 248.726 5.81651C248.717 8.47997 246.543 10.633 243.863 10.633Z" stroke="#24EF7F" stroke-width="2" stroke-miterlimit="10" stroke-linecap="round" stroke-linejoin="round"/>
<path d="M43.6205 205C40.9407 205 38.7575 202.847 38.7575 200.184C38.7575 197.53 40.9314 195.367 43.6205 195.367C46.3004 195.367 48.4836 197.52 48.4836 200.184C48.4742 202.847 46.3004 205 43.6205 205Z" stroke="#24EF7F" stroke-width="2" stroke-miterlimit="10" stroke-linecap="round" stroke-linejoin="round"/>
<path d="M49.9472 3.89749C49.9472 4.8609 50.7357 5.64189 51.7085 5.64189C52.6812 5.64189 53.4697 4.8609 53.4697 3.89749C53.4697 2.93408 52.6812 2.15308 51.7085 2.15308C50.7357 2.15308 49.9472 2.93408 49.9472 3.89749Z" fill="#24EF7F"/>
<path d="M49.9472 16.0713C49.9472 17.0347 50.7357 17.8157 51.7085 17.8157C52.6812 17.8157 53.4697 17.0347 53.4697 16.0713C53.4697 15.1079 52.6812 14.3269 51.7085 14.3269C50.7357 14.3269 49.9472 15.1079 49.9472 16.0713Z" fill="#24EF7F"/>
<path d="M49.9472 28.2564C49.9472 29.2198 50.7357 30.0008 51.7085 30.0008C52.6812 30.0008 53.4697 29.2198 53.4697 28.2564C53.4697 27.293 52.6812 26.512 51.7085 26.512C50.7357 26.512 49.9472 27.293 49.9472 28.2564Z" fill="#24EF7F"/>
<path d="M49.9472 40.4312C49.9472 41.3946 50.7357 42.1756 51.7085 42.1756C52.6812 42.1756 53.4697 41.3946 53.4697 40.4312C53.4697 39.4678 52.6812 38.6868 51.7085 38.6868C50.7357 38.6868 49.9472 39.4678 49.9472 40.4312Z" fill="#24EF7F"/>
<path d="M49.9472 52.6153C49.9472 53.5787 50.7357 54.3597 51.7085 54.3597C52.6812 54.3597 53.4697 53.5787 53.4697 52.6153C53.4697 51.6519 52.6812 50.8709 51.7085 50.8709C50.7357 50.8709 49.9472 51.6519 49.9472 52.6153Z" fill="#24EF7F"/>
<path d="M37.6537 3.89736C37.6537 4.86077 38.4422 5.64177 39.4149 5.64177C40.3877 5.64177 41.1762 4.86077 41.1762 3.89736C41.1762 2.93395 40.3877 2.15295 39.4149 2.15295C38.4422 2.15295 37.6537 2.93395 37.6537 3.89736Z" fill="#24EF7F"/>
<path d="M37.6537 16.0717C37.6537 17.0351 38.4422 17.8161 39.4149 17.8161C40.3877 17.8161 41.1762 17.0351 41.1762 16.0717C41.1762 15.1083 40.3877 14.3273 39.4149 14.3273C38.4422 14.3273 37.6537 15.1083 37.6537 16.0717Z" fill="#24EF7F"/>
<path d="M37.6537 28.2562C37.6537 29.2197 38.4422 30.0007 39.4149 30.0007C40.3877 30.0007 41.1762 29.2197 41.1762 28.2562C41.1762 27.2928 40.3877 26.5118 39.4149 26.5118C38.4422 26.5118 37.6537 27.2928 37.6537 28.2562Z" fill="#24EF7F"/>
<path d="M37.6537 40.4311C37.6537 41.3945 38.4422 42.1755 39.4149 42.1755C40.3877 42.1755 41.1762 41.3945 41.1762 40.4311C41.1762 39.4676 40.3877 38.6866 39.4149 38.6866C38.4422 38.6866 37.6537 39.4676 37.6537 40.4311Z" fill="#24EF7F"/>
<path d="M37.6537 52.6151C37.6537 53.5785 38.4422 54.3595 39.4149 54.3595C40.3877 54.3595 41.1762 53.5785 41.1762 52.6151C41.1762 51.6517 40.3877 50.8707 39.4149 50.8707C38.4422 50.8707 37.6537 51.6517 37.6537 52.6151Z" fill="#24EF7F"/>
<path d="M25.351 3.89736C25.351 4.86077 26.1395 5.64177 27.1122 5.64177C28.0849 5.64177 28.8735 4.86077 28.8735 3.89736C28.8735 2.93395 28.0849 2.15295 27.1122 2.15295C26.1395 2.15295 25.351 2.93395 25.351 3.89736Z" fill="#24EF7F"/>
<path d="M25.351 16.0717C25.351 17.0351 26.1395 17.8161 27.1122 17.8161C28.0849 17.8161 28.8735 17.0351 28.8735 16.0717C28.8735 15.1083 28.0849 14.3273 27.1122 14.3273C26.1395 14.3273 25.351 15.1083 25.351 16.0717Z" fill="#24EF7F"/>
<path d="M25.351 28.2562C25.351 29.2197 26.1395 30.0007 27.1122 30.0007C28.0849 30.0007 28.8735 29.2197 28.8735 28.2562C28.8735 27.2928 28.0849 26.5118 27.1122 26.5118C26.1395 26.5118 25.351 27.2928 25.351 28.2562Z" fill="#24EF7F"/>
<path d="M25.351 40.4311C25.351 41.3945 26.1395 42.1755 27.1122 42.1755C28.0849 42.1755 28.8735 41.3945 28.8735 40.4311C28.8735 39.4676 28.0849 38.6866 27.1122 38.6866C26.1395 38.6866 25.351 39.4676 25.351 40.4311Z" fill="#24EF7F"/>
<path d="M25.351 52.6151C25.351 53.5785 26.1395 54.3595 27.1122 54.3595C28.0849 54.3595 28.8735 53.5785 28.8735 52.6151C28.8735 51.6517 28.0849 50.8707 27.1122 50.8707C26.1395 50.8707 25.351 51.6517 25.351 52.6151Z" fill="#24EF7F"/>
<path d="M13.0576 3.89736C13.0576 4.86077 13.8462 5.64177 14.8189 5.64177C15.7916 5.64177 16.5801 4.86077 16.5801 3.89736C16.5801 2.93395 15.7916 2.15295 14.8189 2.15295C13.8462 2.15295 13.0576 2.93395 13.0576 3.89736Z" fill="#24EF7F"/>
<path d="M13.0576 16.0717C13.0576 17.0351 13.8462 17.8161 14.8189 17.8161C15.7916 17.8161 16.5801 17.0351 16.5801 16.0717C16.5801 15.1083 15.7916 14.3273 14.8189 14.3273C13.8462 14.3273 13.0576 15.1083 13.0576 16.0717Z" fill="#24EF7F"/>
<path d="M13.0576 28.2562C13.0576 29.2197 13.8462 30.0007 14.8189 30.0007C15.7916 30.0007 16.5801 29.2197 16.5801 28.2562C16.5801 27.2928 15.7916 26.5118 14.8189 26.5118C13.8462 26.5118 13.0576 27.2928 13.0576 28.2562Z" fill="#24EF7F"/>
<path d="M13.0576 40.4311C13.0576 41.3945 13.8462 42.1755 14.8189 42.1755C15.7916 42.1755 16.5801 41.3945 16.5801 40.4311C16.5801 39.4676 15.7916 38.6866 14.8189 38.6866C13.8462 38.6866 13.0576 39.4676 13.0576 40.4311Z" fill="#24EF7F"/>
<path d="M13.0576 52.6151C13.0576 53.5785 13.8462 54.3595 14.8189 54.3595C15.7916 54.3595 16.5801 53.5785 16.5801 52.6151C16.5801 51.6517 15.7916 50.8707 14.8189 50.8707C13.8462 50.8707 13.0576 51.6517 13.0576 52.6151Z" fill="#24EF7F"/>
<path d="M255.477 106.703C255.477 107.667 256.266 108.448 257.239 108.448C258.211 108.448 259 107.667 259 106.703C259 105.74 258.211 104.959 257.239 104.959C256.266 104.959 255.477 105.74 255.477 106.703Z" fill="#24EF7F"/>
<path d="M255.478 118.878C255.478 119.841 256.266 120.622 257.239 120.622C258.211 120.622 259 119.841 259 118.878C259 117.915 258.211 117.134 257.239 117.134C256.266 117.134 255.478 117.915 255.478 118.878Z" fill="#24EF7F"/>
<path d="M255.478 131.062C255.478 132.025 256.266 132.806 257.239 132.806C258.211 132.806 259 132.025 259 131.062C259 130.099 258.211 129.318 257.239 129.318C256.266 129.318 255.478 130.099 255.478 131.062Z" fill="#24EF7F"/>
<path d="M243.175 106.703C243.175 107.666 243.963 108.447 244.936 108.447C245.909 108.447 246.697 107.666 246.697 106.703C246.697 105.74 245.909 104.959 244.936 104.959C243.963 104.959 243.175 105.74 243.175 106.703Z" fill="#24EF7F"/>
<path d="M243.175 118.878C243.175 119.841 243.963 120.622 244.936 120.622C245.909 120.622 246.697 119.841 246.697 118.878C246.697 117.914 245.909 117.133 244.936 117.133C243.963 117.133 243.175 117.914 243.175 118.878Z" fill="#24EF7F"/>
<path d="M243.175 131.062C243.175 132.026 243.963 132.807 244.936 132.807C245.909 132.807 246.697 132.026 246.697 131.062C246.697 130.099 245.909 129.318 244.936 129.318C243.963 129.318 243.175 130.099 243.175 131.062Z" fill="#24EF7F"/>
</svg>
