<svg width="250" height="236" fill="none" xmlns="http://www.w3.org/2000/svg"><path fill-rule="evenodd" clip-rule="evenodd" d="M8.253 113.721a1 1 0 1 0-1.412-1.416l-2.112 2.106-2.112-2.106a1 1 0 0 0-1.412 1.416l2.108 2.102-2.108 2.103a1 1 0 1 0 1.412 1.416l2.112-2.106 2.112 2.106a1 1 0 0 0 1.412-1.416l-2.108-2.103 2.108-2.102Z" fill="#9871F5"/><path d="M244.156 112.674c-2.669 0-4.843-2.159-4.843-4.831a4.839 4.839 0 0 1 4.843-4.831c2.669 0 4.844 2.16 4.844 4.831a4.845 4.845 0 0 1-4.844 4.831ZM45.844 29.665c-2.67 0-4.844-2.16-4.844-4.831a4.84 4.84 0 0 1 4.844-4.832c2.669 0 4.843 2.16 4.843 4.832a4.845 4.845 0 0 1-4.843 4.83ZM81.652 229 76 234.621M81.652 234.621 76 229M225.573 223.711c-2.958 0-5.357-2.392-5.357-5.343s2.399-5.343 5.357-5.343c2.959 0 5.357 2.392 5.357 5.343 0 2.941-2.398 5.343-5.357 5.343ZM221.878 222.23l-3.789 3.769" stroke="#9871F5" stroke-width="2" stroke-miterlimit="10" stroke-linecap="round" stroke-linejoin="round"/><path d="M16.245 194.772c0 .967.785 1.75 1.754 1.75s1.754-.783 1.754-1.75c0-.966-.785-1.749-1.754-1.749s-1.754.783-1.754 1.749ZM16.245 206.985c0 .967.786 1.75 1.755 1.75.968 0 1.754-.783 1.754-1.75 0-.966-.786-1.749-1.755-1.749-.968 0-1.754.783-1.754 1.749ZM16.245 219.205c0 .966.786 1.75 1.755 1.75.968 0 1.754-.784 1.754-1.75s-.786-1.749-1.755-1.749c-.968 0-1.754.783-1.754 1.749ZM3.991 194.772c0 .966.786 1.749 1.755 1.749.968 0 1.754-.783 1.754-1.749 0-.966-.786-1.75-1.754-1.75-.97 0-1.755.784-1.755 1.75ZM3.991 206.985c0 .967.786 1.75 1.755 1.75.968 0 1.754-.783 1.754-1.75 0-.966-.786-1.749-1.754-1.749-.97 0-1.755.783-1.755 1.749ZM3.991 219.205c0 .966.786 1.75 1.755 1.75.968 0 1.754-.784 1.754-1.75s-.786-1.749-1.754-1.749c-.97 0-1.755.783-1.755 1.749ZM213.096 38.404c0 .966.785 1.75 1.754 1.75s1.754-.784 1.754-1.75c0-.967-.785-1.75-1.754-1.75s-1.754.783-1.754 1.75ZM200.842 38.404c0 .967.785 1.75 1.754 1.75s1.754-.783 1.754-1.75c0-.966-.785-1.75-1.754-1.75s-1.754.784-1.754 1.75ZM188.597 38.404c0 .967.786 1.75 1.755 1.75.968 0 1.754-.783 1.754-1.75 0-.966-.786-1.75-1.754-1.75-.969 0-1.755.784-1.755 1.75ZM176.343 38.404c0 .967.786 1.75 1.755 1.75.968 0 1.754-.783 1.754-1.75 0-.966-.786-1.75-1.754-1.75-.969 0-1.755.784-1.755 1.75ZM164.099 38.404c0 .967.785 1.75 1.754 1.75s1.754-.783 1.754-1.75c0-.966-.785-1.75-1.754-1.75s-1.754.784-1.754 1.75ZM151.845 38.404c0 .967.785 1.75 1.754 1.75s1.755-.783 1.755-1.75c0-.966-.786-1.75-1.755-1.75-.969 0-1.754.784-1.754 1.75ZM139.6 38.404c0 .967.786 1.75 1.755 1.75.968 0 1.754-.783 1.754-1.75 0-.966-.786-1.75-1.754-1.75-.969 0-1.755.784-1.755 1.75ZM213.096 26.183c0 .966.785 1.75 1.754 1.75s1.754-.784 1.754-1.75-.785-1.75-1.754-1.75-1.754.784-1.754 1.75ZM200.842 26.183c0 .966.785 1.75 1.754 1.75s1.754-.784 1.754-1.75-.785-1.75-1.754-1.75-1.754.784-1.754 1.75ZM188.597 26.183c0 .966.786 1.75 1.755 1.75.968 0 1.754-.784 1.754-1.75s-.786-1.75-1.754-1.75c-.969 0-1.755.784-1.755 1.75ZM176.343 26.183c0 .966.786 1.75 1.755 1.75.968 0 1.754-.784 1.754-1.75s-.786-1.75-1.754-1.75c-.969 0-1.755.784-1.755 1.75ZM164.099 26.183c0 .966.785 1.75 1.754 1.75s1.754-.784 1.754-1.75-.785-1.75-1.754-1.75-1.754.784-1.754 1.75ZM151.845 26.183c0 .966.785 1.75 1.754 1.75s1.755-.784 1.755-1.75-.786-1.75-1.755-1.75c-.969 0-1.754.784-1.754 1.75ZM139.6 26.183c0 .966.786 1.75 1.755 1.75.968 0 1.754-.784 1.754-1.75s-.786-1.75-1.754-1.75c-.969 0-1.755.784-1.755 1.75ZM213.096 13.97c0 .967.785 1.75 1.754 1.75s1.754-.783 1.754-1.75c0-.966-.785-1.749-1.754-1.749s-1.754.784-1.754 1.75ZM200.842 13.97c0 .967.785 1.75 1.754 1.75s1.754-.783 1.754-1.75c0-.966-.785-1.749-1.754-1.749s-1.754.784-1.754 1.75ZM188.597 13.97c0 .967.786 1.75 1.755 1.75.968 0 1.754-.783 1.754-1.75 0-.966-.786-1.749-1.754-1.749-.969 0-1.755.784-1.755 1.75ZM176.343 13.97c0 .967.786 1.75 1.755 1.75.968 0 1.754-.783 1.754-1.75 0-.966-.786-1.749-1.754-1.749-.969 0-1.755.784-1.755 1.75ZM164.099 13.97c0 .967.785 1.75 1.754 1.75s1.754-.783 1.754-1.75c0-.966-.785-1.749-1.754-1.749s-1.754.784-1.754 1.75ZM151.845 13.97c0 .967.785 1.75 1.754 1.75s1.755-.783 1.755-1.75c0-.966-.786-1.749-1.755-1.749-.969 0-1.754.784-1.754 1.75ZM139.6 13.97c0 .967.786 1.75 1.755 1.75.968 0 1.754-.783 1.754-1.75 0-.966-.786-1.749-1.754-1.749-.969 0-1.755.784-1.755 1.75ZM213.095 1.75c0 .966.785 1.75 1.754 1.75s1.754-.784 1.754-1.75S215.818 0 214.849 0s-1.754.784-1.754 1.75ZM200.842 1.75c0 .966.785 1.749 1.754 1.749s1.754-.783 1.754-1.75c0-.966-.785-1.749-1.754-1.749s-1.754.783-1.754 1.75ZM188.597 1.75c0 .966.786 1.749 1.755 1.749.968 0 1.754-.783 1.754-1.75 0-.966-.786-1.749-1.754-1.749-.969 0-1.755.783-1.755 1.75ZM176.343 1.75c0 .966.786 1.749 1.755 1.749.968 0 1.754-.783 1.754-1.75 0-.966-.786-1.749-1.754-1.749-.969 0-1.755.783-1.755 1.75ZM164.099 1.75c0 .966.785 1.749 1.754 1.749s1.754-.783 1.754-1.75c0-.966-.785-1.749-1.754-1.749s-1.754.783-1.754 1.75ZM151.845 1.75c0 .966.785 1.749 1.754 1.749s1.755-.783 1.755-1.75c0-.966-.786-1.749-1.755-1.749-.969 0-1.754.783-1.754 1.75ZM139.6 1.75c0 .966.786 1.749 1.755 1.749.968 0 1.754-.783 1.754-1.75 0-.966-.786-1.749-1.754-1.749-.969 0-1.755.783-1.755 1.75Z" fill="#9871F5"/></svg>